<svg width="665" height="176" viewBox="0 0 665 176" fill="none" xmlns="http://www.w3.org/2000/svg">
<path d="M0.5 74.875V2.12499C0.5 1.375 0.875 1 1.625 1H35.375C41.6 1 46.925 3.17499 51.275 7.6C55.7 12.025 57.875 17.275 57.875 23.5C57.875 29.275 56 34.225 52.175 38.5C56 42.625 57.875 47.575 57.875 53.5C57.875 59.725 55.7 64.975 51.275 69.4C46.925 73.825 41.6 76 35.375 76H1.625C0.875 76 0.5 75.625 0.5 74.875ZM42.875 23.35C42.875 21.175 42.125 19.3 40.7 17.575C39.275 15.85 37.55 14.95 35.375 14.95H15.5V31.225H35.375C39.8 31.225 42.875 27.55 42.875 23.35ZM35.375 45.175H15.5V62.05H35.375C37.55 62.05 39.275 61.15 40.7 59.35C42.125 57.55 42.875 55.6 42.875 53.425C42.875 51.25 42.125 49.375 40.7 47.725C39.275 46 37.55 45.175 35.375 45.175ZM164.75 38.5V38.575V38.65C164.75 39.7 164.75 40.45 164.675 40.975C164 53.05 158 62.5 148.7 67.975C139.475 73.375 128.225 76 115.25 76.225H113C100.025 76 88.775 73.375 79.475 67.975C70.25 62.5 64.25 53.05 63.575 40.975C63.5 40.45 63.5 39.7 63.5 38.65V38.575V38.5C63.5 37.45 63.5 36.7 63.575 36.175C64.25 24.1 70.25 14.575 79.475 9.175C88.775 3.7 100.025 1 113 0.774998H115.25C128.225 1 139.475 3.7 148.7 9.175C158 14.575 164 24.1 164.675 36.175C164.75 36.7 164.75 37.45 164.75 38.5ZM113.075 62.125H115.175C123.275 62.05 131.15 60.175 138.05 56.65C145.025 53.05 149.75 46.6 149.75 38.575C149.75 30.55 145.025 24.025 138.05 20.5C131.15 16.9 123.275 15.025 115.175 14.95H113.075C104.975 15.025 97.1 16.9 90.125 20.5C83.225 24.025 78.5 30.55 78.5 38.575C78.5 46.6 83.225 53.05 90.125 56.65C97.1 60.175 104.975 62.05 113.075 62.125ZM229.579 76H215.629C214.954 76 214.504 75.7 214.279 75.1L201.904 46H186.154V74.875C186.154 75.625 185.779 76 185.029 76H172.279C171.529 76 171.154 75.625 171.154 74.875V2.12499C171.154 1.375 171.529 1 172.279 1H208.504C214.729 1 219.979 3.17499 224.404 7.6C228.829 12.025 231.004 17.275 231.004 23.5C231.004 28.075 229.729 32.275 227.254 36.025C224.779 39.7 221.479 42.475 217.354 44.2L230.404 74.65C230.779 75.55 230.554 76 229.579 76ZM208.504 14.95H186.154V32.05H208.504C210.679 32.05 212.479 31.15 213.904 29.425C215.329 27.625 216.004 25.675 216.004 23.5C216.004 21.325 215.329 19.375 213.904 17.65C212.479 15.85 210.679 14.95 208.504 14.95ZM294.904 23.5H282.079C281.404 23.5 281.029 23.125 280.954 22.375C280.054 17.95 277.504 14.95 273.529 14.95H256.654C254.479 14.95 252.754 15.85 251.404 17.575C250.129 19.3 249.454 21.175 249.454 23.275C249.454 27.7 252.154 31.45 256.654 31.45H273.529C279.754 31.45 285.079 33.625 289.429 37.9C293.779 42.175 295.954 47.125 295.954 52.9C295.954 58.975 293.854 64.375 289.654 69.025C285.454 73.675 280.054 76 273.529 76H256.654C250.429 76 245.179 73.975 240.979 69.925C236.854 65.8 234.529 60.7 234.154 54.625C234.154 53.875 234.529 53.5 235.279 53.5H248.029C248.704 53.5 249.154 53.875 249.229 54.625C249.454 58.75 252.154 62.05 256.654 62.05H273.529C275.704 62.05 277.504 61.225 278.929 59.575C280.429 57.925 281.179 56.05 281.179 53.875C281.179 51.625 280.429 49.675 278.929 47.95C277.504 46.225 275.704 45.4 273.529 45.4H256.654C250.579 45.4 245.254 43.225 240.829 38.95C236.404 34.6 234.229 29.5 234.229 23.725C234.229 17.8 236.404 12.475 240.829 7.9C245.254 3.325 250.504 1 256.654 1H273.529C279.454 1 284.629 3.1 288.904 7.225C293.254 11.35 295.654 16.375 296.029 22.375C296.029 23.125 295.654 23.5 294.904 23.5ZM339.304 1.9L361.879 74.725C362.254 75.55 361.954 76 360.979 76H347.929C347.179 76 346.729 75.7 346.579 75.1L343.354 64.15H318.079L314.854 75.1C314.704 75.7 314.254 76 313.504 76H300.454C299.479 76 299.179 75.55 299.554 74.725L322.129 1.9C322.354 1.3 322.804 1 323.479 1H337.954C338.629 1 339.079 1.3 339.304 1.9ZM322.129 50.2H339.229L330.679 21.025L322.129 50.2ZM72.125 131V146C72.125 154.25 69.2 161.3 63.275 167.225C57.425 173.075 50.375 176 42.125 176H1.625C0.875 176 0.5 175.625 0.5 174.875V102.125C0.5 101.375 0.875 101 1.625 101H42.125C50.375 101 57.425 103.925 63.275 109.85C69.2 115.7 72.125 122.75 72.125 131ZM57.125 146V131C57.125 126.8 55.625 123.05 52.625 119.825C49.7 116.6 46.175 114.95 42.125 114.95H15.5V162.05H42.125C46.175 162.05 49.7 160.4 52.625 157.175C55.625 153.95 57.125 150.2 57.125 146ZM94.2354 115.475V131.075H121.985C122.735 131.075 123.11 131.45 123.11 132.2V144.425C123.11 145.175 122.735 145.55 121.985 145.55H94.2354V161.525H121.985C122.735 161.525 123.11 161.9 123.11 162.65V174.875C123.11 175.625 122.735 176 121.985 176H80.3604C79.6104 176 79.2354 175.625 79.2354 174.875V102.125C79.2354 101.375 79.6104 101 80.3604 101H121.985C122.735 101 123.11 101.375 123.11 102.125V114.35C123.11 115.1 122.735 115.475 121.985 115.475H94.2354ZM182.015 101H243.14C243.89 101 244.265 101.375 244.265 102.125V113.825C244.265 114.575 243.89 114.95 243.14 114.95H220.115V174.875C220.115 175.625 219.74 176 218.99 176H206.24C205.49 176 205.115 175.625 205.115 174.875V114.95H182.015C181.265 114.95 180.89 114.575 180.89 113.825V102.125C180.89 101.375 181.265 101 182.015 101ZM308.315 176H294.365C293.69 176 293.24 175.7 293.015 175.1L280.64 146H264.89V174.875C264.89 175.625 264.515 176 263.765 176H251.015C250.265 176 249.89 175.625 249.89 174.875V102.125C249.89 101.375 250.265 101 251.015 101H287.24C293.465 101 298.715 103.175 303.14 107.6C307.565 112.025 309.74 117.275 309.74 123.5C309.74 128.075 308.465 132.275 305.99 136.025C303.515 139.7 300.215 142.475 296.09 144.2L309.14 174.65C309.515 175.55 309.29 176 308.315 176ZM287.24 114.95H264.89V132.05H287.24C289.415 132.05 291.215 131.15 292.64 129.425C294.065 127.625 294.74 125.675 294.74 123.5C294.74 121.325 294.065 119.375 292.64 117.65C291.215 115.85 289.415 114.95 287.24 114.95ZM332.015 114.725V131.525H410.765C411.515 131.525 411.89 131.9 411.89 132.65V144.125C411.89 144.875 411.515 145.25 410.765 145.25H332.015V162.275H410.765C411.515 162.275 411.89 162.65 411.89 163.4V174.875C411.89 175.625 411.515 176 410.765 176H318.14C317.39 176 317.015 175.625 317.015 174.875V102.125C317.015 101.375 317.39 101 318.14 101H410.765C411.515 101 411.89 101.375 411.89 102.125V113.6C411.89 114.35 411.515 114.725 410.765 114.725H332.015ZM420.544 174.875V102.125C420.544 101.375 420.919 101 421.669 101H455.419C461.644 101 466.969 103.175 471.319 107.6C475.744 112.025 477.919 117.275 477.919 123.5C477.919 129.275 476.044 134.225 472.219 138.5C476.044 142.625 477.919 147.575 477.919 153.5C477.919 159.725 475.744 164.975 471.319 169.4C466.969 173.825 461.644 176 455.419 176H421.669C420.919 176 420.544 175.625 420.544 174.875ZM462.919 123.35C462.919 121.175 462.169 119.3 460.744 117.575C459.319 115.85 457.594 114.95 455.419 114.95H435.544V131.225H455.419C459.844 131.225 462.919 127.55 462.919 123.35ZM455.419 145.175H435.544V162.05H455.419C457.594 162.05 459.319 161.15 460.744 159.35C462.169 157.55 462.919 155.6 462.919 153.425C462.919 151.25 462.169 149.375 460.744 147.725C459.319 146 457.594 145.175 455.419 145.175ZM531.169 101.9L559.519 174.725C559.894 175.55 559.594 176 558.619 176H545.944C545.269 176 544.819 175.7 544.594 175.1L540.394 164.15H502.744L498.244 175.1C498.019 175.7 497.569 176 496.894 176H484.219C483.244 176 482.944 175.55 483.319 174.725L513.919 101.9C514.144 101.3 514.819 101 516.019 101H529.819C530.419 101 530.869 101.3 531.169 101.9ZM508.519 150.2H534.994L522.319 116.975L508.519 150.2ZM611.029 176H567.529C566.779 176 566.404 175.625 566.404 174.875V102.125C566.404 101.375 566.779 101 567.529 101H580.279C581.029 101 581.404 101.375 581.404 102.125V161.525H611.029C611.779 161.525 612.154 161.9 612.154 162.65V174.875C612.154 175.55 611.554 176 611.029 176ZM663.544 176H620.044C619.294 176 618.919 175.625 618.919 174.875V102.125C618.919 101.375 619.294 101 620.044 101H632.794C633.544 101 633.919 101.375 633.919 102.125V161.525H663.544C664.294 161.525 664.669 161.9 664.669 162.65V174.875C664.669 175.55 664.069 176 663.544 176Z" fill="#6D5EF7"/>
</svg>
