<svg width="130" height="42" viewBox="0 0 130 42" fill="none" xmlns="http://www.w3.org/2000/svg">
<path d="M122.927 41.1272C119.625 41.1272 117.224 39.7338 116.067 37.1398C115.574 36.0251 115.316 34.7388 115.316 33.1525C115.316 31.5661 115.574 30.2798 116.067 29.1651C117.203 26.6569 119.561 25.1777 122.927 25.1777C124.985 25.1777 126.743 25.8209 128.007 26.957C129.208 28.0504 129.894 29.5938 129.937 31.3517H125.821C125.778 30.4942 125.478 29.8082 124.942 29.3152C124.406 28.8435 123.763 28.6077 122.777 28.6077C121.362 28.6077 120.397 29.208 119.904 30.3013C119.604 31.0087 119.475 31.8019 119.475 33.131C119.475 34.4602 119.582 35.3391 119.883 36.0251C120.419 37.1827 121.426 37.6972 122.798 37.6972C123.72 37.6972 124.492 37.4614 125.028 36.9469C125.521 36.5182 125.821 35.875 125.864 35.0818H130.001C129.958 36.7968 129.272 38.276 128.115 39.305C126.85 40.4626 125.006 41.1272 122.927 41.1272Z" fill="white"/>
<path d="M105.819 41.1272C102.475 41.1272 100.138 39.7123 99.0237 37.2041C98.5092 36.068 98.2305 34.6745 98.2305 33.1525C98.2305 31.6304 98.5092 30.2584 99.0022 29.1222C100.117 26.614 102.497 25.1777 105.819 25.1777C109.142 25.1777 111.5 26.614 112.615 29.0794C113.108 30.237 113.387 31.6304 113.387 33.1525C113.387 34.696 113.108 36.0894 112.594 37.247C111.479 39.7123 109.121 41.1272 105.819 41.1272ZM105.819 37.6972C107.363 37.6972 108.328 37.0112 108.821 35.875C109.142 35.1676 109.271 34.353 109.271 33.1525C109.271 31.9305 109.142 31.1373 108.842 30.4085C108.306 29.2723 107.341 28.6077 105.819 28.6077C104.276 28.6077 103.311 29.2723 102.797 30.4085C102.475 31.1373 102.368 31.9305 102.368 33.1525C102.368 34.353 102.497 35.1676 102.818 35.875C103.333 37.0112 104.276 37.6972 105.819 37.6972Z" fill="white"/>
<path d="M87.8516 40.7198V25.585H96.4051V28.7791H91.7317V31.5231H96.3622V34.653H91.7317V40.7198H87.8516Z" fill="white"/>
<path d="M70.7852 40.7198V25.585H80.8179V28.7577H74.6653V31.5231H80.7536V34.5673H74.6653V37.5471H80.8179V40.7198H70.7852Z" fill="white"/>
<path d="M54.6211 40.7198V25.585H61.0095C64.3751 25.585 66.6475 26.957 67.6979 29.3151C68.191 30.3655 68.4054 31.5874 68.4054 33.1524C68.4054 34.7173 68.191 35.9393 67.6979 36.9897C66.6475 39.3478 64.3751 40.7198 61.0095 40.7198H54.6211ZM58.5013 37.4184H60.3878C62.2528 37.4184 63.3461 36.7539 63.8821 35.5534C64.1608 34.9317 64.2679 34.2028 64.2679 33.1524C64.2679 32.1019 64.1608 31.3516 63.8821 30.73C63.3247 29.5295 62.2528 28.8863 60.3878 28.8863H58.5013V37.4184Z" fill="white"/>
<path d="M118.531 21.1189C115.401 21.1189 113.408 19.9613 112.614 18.2034C112.336 17.5817 112.207 16.8743 112.207 16.0811H116.473C116.473 16.5099 116.516 16.8743 116.666 17.1744C116.966 17.8604 117.631 18.2248 118.681 18.2248C119.624 18.2248 120.31 17.9033 120.589 17.3245C120.696 17.0887 120.718 16.8743 120.718 16.6385C120.718 16.3598 120.675 16.1669 120.589 15.9739C120.096 14.902 118.274 14.6448 116.516 14.1089C114.93 13.6372 113.515 12.9084 112.893 11.5578C112.679 11.0862 112.55 10.5288 112.55 9.82136C112.55 9.11393 112.7 8.51368 112.936 7.9563C113.708 6.24131 115.744 5.16943 118.51 5.16943C121.146 5.16943 123.119 6.11268 123.933 7.91343C124.212 8.55655 124.341 9.1568 124.341 9.99286H120.31C120.31 9.54268 120.268 9.19968 120.117 8.87811C119.839 8.27786 119.26 7.97774 118.36 7.97774C117.481 7.97774 116.859 8.27787 116.623 8.79236C116.537 8.9853 116.516 9.1568 116.516 9.34974C116.516 9.56411 116.537 9.73561 116.623 9.92855C117.009 10.8075 118.617 11.0433 120.396 11.5578C122.283 12.0723 123.955 12.7369 124.619 14.2589C124.855 14.7949 124.984 15.3951 124.984 16.1669C124.984 16.96 124.834 17.6246 124.576 18.2248C123.719 20.1113 121.489 21.1189 118.531 21.1189Z" fill="white"/>
<path d="M105.794 4.56913H102.45L99.9849 1.46069H103.651L105.794 4.56913ZM107.467 20.7115L106.588 17.8603H100.671L99.792 20.7115H95.7617L100.735 5.57669H106.523L111.497 20.7115H107.467ZM101.571 14.9449H105.687L103.651 8.38499H103.608L101.571 14.9449Z" fill="white"/>
<path d="M87.9757 12.3939H95.2215V13.38C95.2215 14.8163 94.9857 16.2097 94.4283 17.4317C93.335 19.8755 91.1913 21.1189 88.0614 21.1189C84.6743 21.1189 82.3162 19.6397 81.1586 17.1315C80.6869 16.0382 80.4297 14.752 80.4297 13.1442C80.4297 11.5364 80.7084 10.2501 81.18 9.1568C82.3376 6.62718 84.6957 5.16943 88.0614 5.16943C90.1837 5.16943 91.963 5.76968 93.2064 6.90587C94.2568 7.87055 94.9857 9.26399 95.0929 10.8504H91.0841C90.9769 10.1644 90.7197 9.60699 90.2695 9.22111C89.755 8.72805 88.9618 8.49224 88.0185 8.49224C86.5608 8.49224 85.5532 9.07105 85.0173 10.2287C84.6957 10.9575 84.5671 11.7293 84.5671 13.1442C84.5671 14.5376 84.6957 15.3094 85.0173 16.0382C85.5532 17.2387 86.6466 17.7961 88.1686 17.7961C89.562 17.7961 90.591 17.303 91.0627 16.274C91.2127 15.931 91.2985 15.588 91.3199 15.095H87.9757V12.3939Z" fill="white"/>
<path d="M68.3984 20.7115V5.57666H78.4312V8.7494H72.2786V11.5148H78.3669V14.559H72.2786V17.5388H78.4312V20.7115H68.3984Z" fill="white"/>
<path d="M54.6211 20.7115V5.57666H61.2238C63.6034 5.57666 65.1898 6.26266 65.8972 7.84903C66.1759 8.51359 66.3259 9.30678 66.3259 10.25C66.3259 11.0646 66.1759 11.8578 65.8972 12.5224C65.1898 14.1088 63.6034 14.902 61.2238 14.902H58.5013V20.7115H54.6211ZM58.5013 12.0936H60.1305C61.181 12.0936 61.867 11.8364 62.1671 11.2361C62.2743 10.9575 62.3386 10.6573 62.3386 10.2715C62.3386 9.86415 62.2743 9.58546 62.1671 9.30678C61.867 8.68509 61.181 8.47072 60.1091 8.47072H58.5013V12.0936Z" fill="white"/>
<path fill-rule="evenodd" clip-rule="evenodd" d="M11.9543 0L11.9549 21.7436H14.7717V18.1678C14.7717 9.51189 21.2086 2.62928 31.1935 0.828663L34.5615 0.221319V5.80065H41.9497L40.9092 9.41259C39.698 13.6174 37.4689 18.2165 33.7902 21.7436H41.287V40.3046H35.5733V27.4107H11.9549V40.3046H6.24121L6.24079 8.17746L2.00622 9.75245L0 4.44623L11.9543 0ZM21.4605 21.7436C27.8561 20.7434 31.8292 16.4836 34.0958 11.4677H28.8477V7.30903C23.2713 9.36909 20.4855 13.6135 20.4855 18.1678V21.7436H21.4605Z" fill="white"/>
</svg>
