<svg width="940" height="177" viewBox="0 0 940 177" fill="none" xmlns="http://www.w3.org/2000/svg">
<path d="M0.5 74.875V2.12499C0.5 1.375 0.875 1 1.625 1H35.375C41.6 1 46.925 3.17499 51.275 7.6C55.7 12.025 57.875 17.275 57.875 23.5C57.875 29.275 56 34.225 52.175 38.5C56 42.625 57.875 47.575 57.875 53.5C57.875 59.725 55.7 64.975 51.275 69.4C46.925 73.825 41.6 76 35.375 76H1.625C0.875 76 0.5 75.625 0.5 74.875ZM42.875 23.35C42.875 21.175 42.125 19.3 40.7 17.575C39.275 15.85 37.55 14.95 35.375 14.95H15.5V31.225H35.375C39.8 31.225 42.875 27.55 42.875 23.35ZM35.375 45.175H15.5V62.05H35.375C37.55 62.05 39.275 61.15 40.7 59.35C42.125 57.55 42.875 55.6 42.875 53.425C42.875 51.25 42.125 49.375 40.7 47.725C39.275 46 37.55 45.175 35.375 45.175ZM164.75 38.5V38.575V38.65C164.75 39.7 164.75 40.45 164.675 40.975C164 53.05 158 62.5 148.7 67.975C139.475 73.375 128.225 76 115.25 76.225H113C100.025 76 88.775 73.375 79.475 67.975C70.25 62.5 64.25 53.05 63.575 40.975C63.5 40.45 63.5 39.7 63.5 38.65V38.575V38.5C63.5 37.45 63.5 36.7 63.575 36.175C64.25 24.1 70.25 14.575 79.475 9.175C88.775 3.7 100.025 1 113 0.774998H115.25C128.225 1 139.475 3.7 148.7 9.175C158 14.575 164 24.1 164.675 36.175C164.75 36.7 164.75 37.45 164.75 38.5ZM113.075 62.125H115.175C123.275 62.05 131.15 60.175 138.05 56.65C145.025 53.05 149.75 46.6 149.75 38.575C149.75 30.55 145.025 24.025 138.05 20.5C131.15 16.9 123.275 15.025 115.175 14.95H113.075C104.975 15.025 97.1 16.9 90.125 20.5C83.225 24.025 78.5 30.55 78.5 38.575C78.5 46.6 83.225 53.05 90.125 56.65C97.1 60.175 104.975 62.05 113.075 62.125ZM229.579 76H215.629C214.954 76 214.504 75.7 214.279 75.1L201.904 46H186.154V74.875C186.154 75.625 185.779 76 185.029 76H172.279C171.529 76 171.154 75.625 171.154 74.875V2.12499C171.154 1.375 171.529 1 172.279 1H208.504C214.729 1 219.979 3.17499 224.404 7.6C228.829 12.025 231.004 17.275 231.004 23.5C231.004 28.075 229.729 32.275 227.254 36.025C224.779 39.7 221.479 42.475 217.354 44.2L230.404 74.65C230.779 75.55 230.554 76 229.579 76ZM208.504 14.95H186.154V32.05H208.504C210.679 32.05 212.479 31.15 213.904 29.425C215.329 27.625 216.004 25.675 216.004 23.5C216.004 21.325 215.329 19.375 213.904 17.65C212.479 15.85 210.679 14.95 208.504 14.95ZM294.904 23.5H282.079C281.404 23.5 281.029 23.125 280.954 22.375C280.054 17.95 277.504 14.95 273.529 14.95H256.654C254.479 14.95 252.754 15.85 251.404 17.575C250.129 19.3 249.454 21.175 249.454 23.275C249.454 27.7 252.154 31.45 256.654 31.45H273.529C279.754 31.45 285.079 33.625 289.429 37.9C293.779 42.175 295.954 47.125 295.954 52.9C295.954 58.975 293.854 64.375 289.654 69.025C285.454 73.675 280.054 76 273.529 76H256.654C250.429 76 245.179 73.975 240.979 69.925C236.854 65.8 234.529 60.7 234.154 54.625C234.154 53.875 234.529 53.5 235.279 53.5H248.029C248.704 53.5 249.154 53.875 249.229 54.625C249.454 58.75 252.154 62.05 256.654 62.05H273.529C275.704 62.05 277.504 61.225 278.929 59.575C280.429 57.925 281.179 56.05 281.179 53.875C281.179 51.625 280.429 49.675 278.929 47.95C277.504 46.225 275.704 45.4 273.529 45.4H256.654C250.579 45.4 245.254 43.225 240.829 38.95C236.404 34.6 234.229 29.5 234.229 23.725C234.229 17.8 236.404 12.475 240.829 7.9C245.254 3.325 250.504 1 256.654 1H273.529C279.454 1 284.629 3.1 288.904 7.225C293.254 11.35 295.654 16.375 296.029 22.375C296.029 23.125 295.654 23.5 294.904 23.5ZM339.304 1.9L361.879 74.725C362.254 75.55 361.954 76 360.979 76H347.929C347.179 76 346.729 75.7 346.579 75.1L343.354 64.15H318.079L314.854 75.1C314.704 75.7 314.254 76 313.504 76H300.454C299.479 76 299.179 75.55 299.554 74.725L322.129 1.9C322.354 1.3 322.804 1 323.479 1H337.954C338.629 1 339.079 1.3 339.304 1.9ZM322.129 50.2H339.229L330.679 21.025L322.129 50.2ZM72.125 131V146C72.125 154.25 69.2 161.3 63.275 167.225C57.425 173.075 50.375 176 42.125 176H1.625C0.875 176 0.5 175.625 0.5 174.875V102.125C0.5 101.375 0.875 101 1.625 101H42.125C50.375 101 57.425 103.925 63.275 109.85C69.2 115.7 72.125 122.75 72.125 131ZM57.125 146V131C57.125 126.8 55.625 123.05 52.625 119.825C49.7 116.6 46.175 114.95 42.125 114.95H15.5V162.05H42.125C46.175 162.05 49.7 160.4 52.625 157.175C55.625 153.95 57.125 150.2 57.125 146ZM94.2354 115.475V131.075H121.985C122.735 131.075 123.11 131.45 123.11 132.2V144.425C123.11 145.175 122.735 145.55 121.985 145.55H94.2354V161.525H121.985C122.735 161.525 123.11 161.9 123.11 162.65V174.875C123.11 175.625 122.735 176 121.985 176H80.3604C79.6104 176 79.2354 175.625 79.2354 174.875V102.125C79.2354 101.375 79.6104 101 80.3604 101H121.985C122.735 101 123.11 101.375 123.11 102.125V114.35C123.11 115.1 122.735 115.475 121.985 115.475H94.2354ZM217.19 101H230.615C231.515 101 231.815 101.45 231.59 102.275L214.865 175.025C214.715 175.7 214.34 176 213.665 176H198.365C197.69 176 197.315 175.7 197.165 175.025L180.44 102.275C180.215 101.45 180.515 101 181.415 101H194.84C195.515 101 195.89 101.3 196.04 101.975L206.015 146.15L215.99 101.975C216.14 101.3 216.515 101 217.19 101ZM304.129 119.6C307.504 125.375 309.154 131.675 309.154 138.5C309.154 145.325 307.504 151.625 304.129 157.4C300.754 163.175 296.254 167.825 290.479 171.2C284.704 174.575 278.479 176.225 271.654 176.225C264.829 176.225 258.604 174.575 252.829 171.2C247.054 167.825 242.554 163.175 239.179 157.4C235.804 151.625 234.154 145.325 234.154 138.5C234.154 131.675 235.804 125.375 239.179 119.6C242.554 113.825 247.054 109.25 252.829 105.875C258.604 102.5 264.829 100.775 271.654 100.775C278.479 100.775 284.704 102.5 290.479 105.875C296.254 109.25 300.754 113.825 304.129 119.6ZM287.479 154.775C291.904 150.125 294.154 144.725 294.154 138.5C294.154 132.275 291.904 126.875 287.479 122.225C283.054 117.575 277.804 115.25 271.654 115.25C265.504 115.25 260.179 117.575 255.754 122.225C251.329 126.875 249.154 132.275 249.154 138.5C249.154 144.725 251.329 150.125 255.754 154.775C260.179 159.425 265.504 161.75 271.654 161.75C277.804 161.75 283.054 159.425 287.479 154.775ZM361.64 176H318.14C317.39 176 317.015 175.625 317.015 174.875V102.125C317.015 101.375 317.39 101 318.14 101H330.89C331.64 101 332.015 101.375 332.015 102.125V161.525H361.64C362.39 161.525 362.765 161.9 362.765 162.65V174.875C362.765 175.55 362.165 176 361.64 176ZM438.904 102.125V146C438.904 154.25 435.979 161.3 430.054 167.225C424.204 173.075 417.154 176 408.904 176H396.904C388.654 176 381.604 173.075 375.679 167.225C369.829 161.3 366.904 154.25 366.904 146V102.125C366.904 101.375 367.279 101 368.029 101H380.779C381.529 101 381.904 101.375 381.904 102.125V146C381.904 150.275 383.404 154.025 386.329 157.25C389.254 160.475 392.779 162.05 396.904 162.05H408.904C413.029 162.05 416.554 160.475 419.479 157.25C422.404 154.025 423.904 150.275 423.904 146V102.125C423.904 101.375 424.279 101 425.029 101H437.779C438.529 101 438.904 101.375 438.904 102.125ZM515.39 176H502.34C501.815 176 501.365 175.775 500.99 175.4L461.765 124.1V174.875C461.765 175.625 461.39 176 460.64 176H447.89C447.14 176 446.765 175.625 446.765 174.875V102.125C446.765 101.375 447.14 101 447.89 101H460.94C461.465 101 461.915 101.225 462.29 101.6L501.515 152.9V102.125C501.515 101.375 501.89 101 502.64 101H515.39C516.14 101 516.515 101.375 516.515 102.125V174.875C516.515 175.625 516.14 176 515.39 176ZM523.25 101H571.25C572 101 572.375 101.375 572.375 102.125V114.35C572.375 115.1 572 115.475 571.25 115.475H554.75V174.875C554.75 175.625 554.375 176 553.625 176H540.875C540.125 176 539.75 175.625 539.75 174.875V115.475H523.25C522.5 115.475 522.125 115.1 522.125 114.35V102.125C522.125 101.375 522.5 101 523.25 101ZM623.015 101.9L651.365 174.725C651.74 175.55 651.44 176 650.465 176H637.79C637.115 176 636.665 175.7 636.44 175.1L632.24 164.15H594.59L590.09 175.1C589.865 175.7 589.415 176 588.74 176H576.065C575.09 176 574.79 175.55 575.165 174.725L605.765 101.9C605.99 101.3 606.665 101 607.865 101H621.665C622.265 101 622.715 101.3 623.015 101.9ZM600.365 150.2H626.84L614.165 116.975L600.365 150.2ZM754.55 176H740.6C739.925 176 739.475 175.7 739.25 175.1L726.875 146H671.75V174.875C671.75 175.625 671.375 176 670.625 176H657.875C657.125 176 656.75 175.625 656.75 174.875V102.125C656.75 101.375 657.125 101 657.875 101H733.475C739.7 101 745.025 103.175 749.375 107.6C753.8 112.025 755.975 117.275 755.975 123.5C755.975 128.075 754.7 132.275 752.225 136.025C749.75 139.7 746.45 142.475 742.325 144.2L755.375 174.65C755.75 175.55 755.525 176 754.55 176ZM733.475 114.725H671.75V132.275H733.475C735.575 132.275 737.375 131.375 738.8 129.575C740.225 127.7 740.975 125.675 740.975 123.5C740.975 121.325 740.225 119.3 738.8 117.5C737.375 115.625 735.575 114.725 733.475 114.725ZM806.779 115.475H791.029V161.525H806.779C807.529 161.525 807.904 161.9 807.904 162.65V174.875C807.904 175.625 807.529 176 806.779 176H760.279C759.529 176 759.154 175.625 759.154 174.875V162.65C759.154 161.9 759.529 161.525 760.279 161.525H776.029V115.475H760.279C759.529 115.475 759.154 115.1 759.154 114.35V102.125C759.154 101.375 759.529 101 760.279 101H806.779C807.529 101 807.904 101.375 807.904 102.125V114.35C807.904 115.1 807.529 115.475 806.779 115.475ZM859.294 101.9L887.644 174.725C888.019 175.55 887.719 176 886.744 176H874.069C873.394 176 872.944 175.7 872.719 175.1L868.519 164.15H830.869L826.369 175.1C826.144 175.7 825.694 176 825.019 176H812.344C811.369 176 811.069 175.55 811.444 174.725L842.044 101.9C842.269 101.3 842.944 101 844.144 101H857.944C858.544 101 858.994 101.3 859.294 101.9ZM836.644 150.2H863.119L850.444 116.975L836.644 150.2ZM890.779 101H938.779C939.529 101 939.904 101.375 939.904 102.125V114.35C939.904 115.1 939.529 115.475 938.779 115.475H922.279V174.875C922.279 175.625 921.904 176 921.154 176H908.404C907.654 176 907.279 175.625 907.279 174.875V115.475H890.779C890.029 115.475 889.654 115.1 889.654 114.35V102.125C889.654 101.375 890.029 101 890.779 101Z" fill="#4CFF93"/>
</svg>

