<svg width="308" height="110" viewBox="0 0 308 110" fill="none" xmlns="http://www.w3.org/2000/svg">
<path d="M12.56 27.6C11.9467 27.1467 11.6267 26.3867 11.6 25.32C11.5733 24.2533 11.7067 23.1733 12 22.08C12.32 20.9867 12.64 19.76 12.96 18.4C13.3067 17.04 13.48 16 13.48 15.28C13.48 15.2 13.4533 15.16 13.4 15.16C13.3467 15.1333 13.2933 15.16 13.24 15.24C12.2533 16.92 11.12 18.3867 9.84 19.64C7.57333 21.8533 5.58667 22.84 3.88 22.6C1.77333 22.28 0.813333 19.9867 1 15.72C1.02667 14.8667 1.16 13.9067 1.4 12.84C1.53333 12.3333 1.66667 11.88 1.8 11.48C1.93333 11.0533 2.09333 10.5733 2.28 10.04C2.46667 9.50667 2.66667 9.06667 2.88 8.72C3.09333 8.37333 3.32 8.08 3.56 7.84C3.8 7.57333 4.06667 7.45333 4.36 7.48C4.65333 7.48 4.94667 7.62667 5.24 7.92C5.69333 8.26667 5.82667 8.88 5.64 9.76C5.45333 10.6133 5.14667 11.44 4.72 12.24C4.32 13.04 3.97333 14.04 3.68 15.24C3.41333 16.44 3.41333 17.5467 3.68 18.56C3.84 19.0933 4.2 19.2933 4.76 19.16C5.50667 19 6.36 18.4133 7.32 17.4C8.28 16.36 9.12 15.3067 9.84 14.24C10.56 13.1467 11.4533 11.76 12.52 10.08C13.5867 8.37333 14.3467 7.18667 14.8 6.52C14.96 6.25333 15.2 6.09333 15.52 6.04C15.84 5.98667 16.12 6.05333 16.36 6.24C17 6.77333 17.2533 7.81333 17.12 9.36C17.04 10.6133 16.5733 13.5467 15.72 18.16C14.8667 22.7733 14.3867 25.72 14.28 27C14.2533 27.4267 14.0267 27.6933 13.6 27.8C13.1733 27.9067 12.8267 27.84 12.56 27.6ZM21.7256 20.84C21.4323 20.3333 21.2456 19.8133 21.1656 19.28C21.1123 18.72 21.1656 18.1333 21.3256 17.52C21.4856 16.88 21.6323 16.3467 21.7656 15.92C21.9256 15.4933 22.1656 14.92 22.4856 14.2C22.5123 14.12 22.6323 13.8133 22.8456 13.28C23.0856 12.7467 23.2723 12.32 23.4056 12C23.5656 11.6533 23.779 11.2 24.0456 10.64C24.3123 10.0533 24.5523 9.58667 24.7656 9.24C25.0056 8.86667 25.259 8.49333 25.5256 8.12C25.7923 7.74667 26.059 7.49333 26.3256 7.36C26.5923 7.2 26.8456 7.16 27.0856 7.24C27.5656 7.4 27.9656 7.64 28.2856 7.96C28.6323 8.28 28.859 8.54667 28.9656 8.76C29.0723 8.97333 29.2323 9.33333 29.4456 9.84C29.6323 10.32 29.899 11.3867 30.2456 13.04C30.619 14.6667 31.0323 16.1467 31.4856 17.48C31.939 18.7867 32.4723 19.6133 33.0856 19.96C33.5123 20.2 33.9523 20.04 34.4056 19.48C34.8856 18.92 35.2856 18.2533 35.6056 17.48C35.9523 16.6533 36.5256 14.4267 37.3256 10.8C38.1256 7.17333 38.5523 5.28 38.6056 5.12C38.6856 4.8 38.899 4.58667 39.2456 4.48C39.5923 4.37333 39.8856 4.37333 40.1256 4.48C40.499 4.66666 40.8056 4.98666 41.0456 5.44C41.2856 5.86667 41.3656 6.29333 41.2856 6.72C41.179 7.22667 41.0056 8.12 40.7656 9.4C40.5256 10.6533 40.3256 11.6667 40.1656 12.44C40.0056 13.1867 39.779 14.0933 39.4856 15.16C39.219 16.2 38.9523 17.12 38.6856 17.92C37.939 20.0267 37.0856 21.5467 36.1256 22.48C35.1656 23.4133 34.2723 23.8267 33.4456 23.72C32.619 23.5867 31.819 23.1067 31.0456 22.28C29.579 20.68 28.4056 17.3467 27.5256 12.28C27.499 12.1733 27.4323 12.12 27.3256 12.12C27.219 12.0933 27.139 12.1333 27.0856 12.24C25.939 14.4 25.0456 16.7333 24.4056 19.24C24.299 19.6933 24.299 20.08 24.4056 20.4C24.459 20.5333 24.4856 20.6667 24.4856 20.8C24.4856 21.36 24.179 21.68 23.5656 21.76C22.7656 21.8933 22.1523 21.5867 21.7256 20.84ZM74.9791 4C75.4591 4.82667 75.3924 5.37333 74.7791 5.64C74.1124 5.90666 73.3924 6.14666 72.6191 6.36C71.8724 6.57333 70.9791 6.81333 69.9391 7.08C68.9257 7.32 68.1524 7.50667 67.6191 7.64C67.4324 7.69333 67.3257 7.78667 67.2991 7.92C66.8191 9.81333 66.3791 12.6267 65.9791 16.36C65.5791 20.0667 65.2724 22.52 65.0591 23.72C65.0057 24.04 64.8324 24.2533 64.5391 24.36C64.2724 24.44 64.0191 24.3733 63.7791 24.16C63.1924 23.7333 62.8724 23.0533 62.8191 22.12C62.7657 21.1867 62.8324 20.3867 63.0191 19.72C63.2857 18.12 63.5924 15.8267 63.9391 12.84C64.0724 11.5867 64.2324 10.3733 64.4191 9.2C64.4457 9.06667 64.4057 8.97333 64.2991 8.92C64.1924 8.84 64.0857 8.82667 63.9791 8.88C63.3924 9.12 62.7924 9.46667 62.1791 9.92C61.5657 10.3733 61.2591 10.7733 61.2591 11.12C61.2591 11.7333 61.0191 12.0133 60.5391 11.96C59.9524 11.9333 59.4991 11.6 59.1791 10.96C59.0991 10.8 59.0457 10.6533 59.0191 10.52C58.8857 9.88 58.9124 9.30667 59.0991 8.8C59.2857 8.26667 59.5524 7.84 59.8991 7.52C60.2457 7.2 60.7391 6.89333 61.3791 6.6C62.0191 6.28 62.5657 6.05333 63.0191 5.92C63.4724 5.76 64.0857 5.58666 64.8591 5.4C65.6324 5.18667 66.1391 5.04 66.3791 4.96C67.2057 4.72 68.3791 4.38667 69.8991 3.96C71.4457 3.53333 72.6057 3.2 73.3791 2.96C73.6991 2.88 74.0057 2.96 74.2991 3.2C74.5924 3.41333 74.8191 3.68 74.9791 4ZM83.8103 12.84C83.8103 12.0933 83.837 11 83.8903 9.56C83.9703 8.09333 84.0103 7 84.0103 6.28C84.0103 6.2 83.9703 6.16 83.8903 6.16C83.8103 6.13333 83.757 6.14667 83.7303 6.2C82.9036 8.36 82.0636 10.6667 81.2103 13.12C81.1836 13.2267 81.197 13.32 81.2503 13.4C81.3036 13.4533 81.3703 13.4667 81.4503 13.44C81.6636 13.3867 81.8903 13.3467 82.1303 13.32C82.3703 13.2667 82.637 13.2267 82.9303 13.2C83.2236 13.1467 83.4503 13.1067 83.6103 13.08C83.7436 13.08 83.8103 13 83.8103 12.84ZM75.1303 27.44C74.7036 27.1467 74.437 26.68 74.3303 26.04C74.2503 25.4 74.3436 24.5867 74.6103 23.6C74.9036 22.6133 75.1703 21.7733 75.4103 21.08C75.677 20.3867 76.0503 19.4667 76.5303 18.32C76.6636 18.0267 76.757 17.8 76.8103 17.64C76.8636 17.48 76.877 17.3333 76.8503 17.2C76.5836 16.5067 76.8236 15.7867 77.5703 15.04C77.7303 14.88 77.8236 14.76 77.8503 14.68C79.6103 9.61333 80.677 6.58667 81.0503 5.6C81.077 5.49333 81.157 5.26667 81.2903 4.92C81.4236 4.54666 81.517 4.29333 81.5703 4.16C81.6236 4 81.717 3.76 81.8503 3.44C81.9836 3.12 82.1036 2.86667 82.2103 2.68C82.317 2.49333 82.4503 2.28 82.6103 2.04C82.7703 1.8 82.9303 1.6 83.0903 1.44C83.757 0.826664 84.3836 0.839998 84.9703 1.48C85.5836 2.09333 85.9703 2.81333 86.1303 3.64C86.2636 4.33333 86.357 5.09333 86.4103 5.92C86.4636 6.74667 86.4903 7.45333 86.4903 8.04C86.4903 8.62667 86.477 9.4 86.4503 10.36C86.4236 11.32 86.4103 12.0533 86.4103 12.56C86.4103 12.72 86.477 12.7733 86.6103 12.72C86.7703 12.6933 86.9703 12.6533 87.2103 12.6C87.4503 12.52 87.6103 12.48 87.6903 12.48C88.0636 12.4267 88.4503 12.6 88.8503 13C89.2503 13.4 89.4636 13.8133 89.4903 14.24C89.5436 14.6667 89.357 14.9867 88.9303 15.2C88.7703 15.2533 87.957 15.4 86.4903 15.64C86.3036 15.6933 86.2103 15.8 86.2103 15.96C86.2103 18.6 85.917 22.56 85.3303 27.84C85.3036 28.16 85.1436 28.36 84.8503 28.44C84.5836 28.5467 84.317 28.5067 84.0503 28.32C83.117 27.76 82.6903 27.1467 82.7703 26.48C83.3836 21.3867 83.6903 18.0133 83.6903 16.36C83.6903 16.1733 83.5836 16.1067 83.3703 16.16C82.117 16.3467 81.0636 16.5733 80.2103 16.84C80.1303 16.8667 80.077 16.92 80.0503 17C79.917 17.4267 79.477 18.64 78.7303 20.64C78.0103 22.6133 77.597 23.8 77.4903 24.2C77.437 24.4133 77.3703 24.72 77.2903 25.12C77.237 25.4933 77.197 25.7333 77.1703 25.84C77.037 26.4533 76.797 26.96 76.4503 27.36C76.1036 27.76 75.6636 27.7867 75.1303 27.44ZM103.966 27.6C103.353 27.1467 103.033 26.3867 103.006 25.32C102.98 24.2533 103.113 23.1733 103.406 22.08C103.726 20.9867 104.046 19.76 104.366 18.4C104.713 17.04 104.886 16 104.886 15.28C104.886 15.2 104.86 15.16 104.806 15.16C104.753 15.1333 104.7 15.16 104.646 15.24C103.66 16.92 102.526 18.3867 101.246 19.64C98.9796 21.8533 96.9929 22.84 95.2863 22.6C93.1796 22.28 92.2196 19.9867 92.4063 15.72C92.4329 14.8667 92.5663 13.9067 92.8063 12.84C92.9396 12.3333 93.0729 11.88 93.2063 11.48C93.3396 11.0533 93.4996 10.5733 93.6863 10.04C93.8729 9.50667 94.0729 9.06667 94.2863 8.72C94.4996 8.37333 94.7263 8.08 94.9663 7.84C95.2063 7.57333 95.4729 7.45333 95.7663 7.48C96.0596 7.48 96.3529 7.62667 96.6463 7.92C97.0996 8.26667 97.2329 8.88 97.0463 9.76C96.8596 10.6133 96.5529 11.44 96.1263 12.24C95.7263 13.04 95.3796 14.04 95.0863 15.24C94.8196 16.44 94.8196 17.5467 95.0863 18.56C95.2463 19.0933 95.6063 19.2933 96.1663 19.16C96.9129 19 97.7663 18.4133 98.7263 17.4C99.6863 16.36 100.526 15.3067 101.246 14.24C101.966 13.1467 102.86 11.76 103.926 10.08C104.993 8.37333 105.753 7.18667 106.206 6.52C106.366 6.25333 106.606 6.09333 106.926 6.04C107.246 5.98667 107.526 6.05333 107.766 6.24C108.406 6.77333 108.66 7.81333 108.526 9.36C108.446 10.6133 107.98 13.5467 107.126 18.16C106.273 22.7733 105.793 25.72 105.686 27C105.66 27.4267 105.433 27.6933 105.006 27.8C104.58 27.9067 104.233 27.84 103.966 27.6ZM114.052 26.4C113.385 26.0533 112.892 25.6267 112.572 25.12C112.252 24.6133 112.132 23.88 112.212 22.92C112.425 19.9867 113.105 16.3867 114.252 12.12C115.425 7.85333 116.519 4.86667 117.532 3.16C117.719 2.86667 118.025 2.69333 118.452 2.64C118.879 2.58667 119.212 2.68 119.452 2.92C119.879 3.34667 120.172 3.88 120.332 4.52C120.492 5.16 120.399 5.65333 120.052 6C119.679 6.32 119.345 6.84 119.052 7.56C117.025 12.84 115.719 17.92 115.132 22.8C115.105 23.1467 115.172 23.4533 115.332 23.72C115.492 23.96 115.719 24.1067 116.012 24.16C116.652 24.2933 117.292 24.2 117.932 23.88C118.572 23.56 119.292 23.08 120.092 22.44C120.892 21.8 121.465 21.3867 121.812 21.2C122.212 20.9867 122.585 21.0933 122.932 21.52C123.279 21.92 123.519 22.3867 123.652 22.92C123.679 23.16 123.625 23.4 123.492 23.64C122.719 24.84 121.292 25.7733 119.212 26.44C117.132 27.08 115.412 27.0667 114.052 26.4ZM135.31 24.6C132.91 25.6667 131.137 25.6533 129.99 24.56C129.27 23.8933 128.817 23.1467 128.63 22.32C128.47 21.4667 128.47 20.6133 128.63 19.76C128.79 18.9067 129.044 17.4533 129.39 15.4C129.737 13.32 129.99 11.24 130.15 9.16C130.15 9.02667 130.044 8.89333 129.83 8.76C129.51 8.6 129.204 8.34667 128.91 8C128.617 7.62667 128.417 7.26667 128.31 6.92C128.23 6.57333 128.377 6.29333 128.75 6.08C128.91 6 129.39 5.89333 130.19 5.76C130.324 5.76 130.417 5.68 130.47 5.52C131.03 3.94667 131.817 3.88 132.83 5.32C132.99 5.42666 133.11 5.48 133.19 5.48C133.884 5.42667 135.257 5.16 137.31 4.68C139.39 4.2 140.75 3.90667 141.39 3.8C141.71 3.77333 142.057 3.93333 142.43 4.28C142.804 4.6 143.057 4.94666 143.19 5.32C143.51 6.22667 143.15 6.74667 142.11 6.88C140.75 7.01333 139.164 7.28 137.35 7.68C135.537 8.08 134.15 8.34667 133.19 8.48C133.057 8.53333 132.964 8.62667 132.91 8.76C132.91 9.08 132.79 10.04 132.55 11.64C132.337 13.2133 132.217 14.2267 132.19 14.68C132.19 14.7867 132.217 14.88 132.27 14.96C132.35 15.0133 132.43 15.0267 132.51 15C133.177 14.92 134.044 14.7733 135.11 14.56C136.177 14.3467 136.964 14.2 137.47 14.12C137.817 14.0933 138.137 14.2133 138.43 14.48C138.75 14.7467 138.99 15.08 139.15 15.48C139.337 15.7467 139.404 16.0667 139.35 16.44C139.324 16.8133 139.15 17.0267 138.83 17.08L132.15 18.2C131.937 18.2 131.804 18.2933 131.75 18.48C131.43 19.84 131.284 20.7467 131.31 21.2C131.337 21.52 131.47 21.76 131.71 21.92C131.977 22.08 132.257 22.0933 132.55 21.96C132.817 21.8533 133.19 21.7067 133.67 21.52C134.177 21.3067 134.604 21.1333 134.95 21C135.297 20.84 135.697 20.6933 136.15 20.56C136.604 20.4267 136.977 20.3733 137.27 20.4C137.59 20.4 137.884 20.4533 138.15 20.56C138.444 20.6667 138.657 20.8933 138.79 21.24C138.95 21.5867 139.03 22.0267 139.03 22.56C139.03 22.6667 138.99 22.7733 138.91 22.88C138.857 22.96 138.764 23.04 138.63 23.12C138.524 23.1733 138.417 23.2267 138.31 23.28C138.204 23.3067 138.044 23.36 137.83 23.44C137.644 23.52 137.51 23.5733 137.43 23.6C137.164 23.7067 136.79 23.88 136.31 24.12C135.857 24.36 135.524 24.52 135.31 24.6ZM145.167 23.88C144.5 22.9733 144.14 21.8 144.087 20.36C144.034 18.8933 144.127 17.6267 144.367 16.56C144.687 13.8133 145.367 9.96 146.407 5C146.647 3.66667 147.074 2.89333 147.687 2.68C148.247 2.52 148.78 2.76 149.287 3.4C149.82 4.04 149.927 4.61333 149.607 5.12C149.367 5.44 149.207 5.70667 149.127 5.92C148.86 6.56 148.394 8.84 147.727 12.76C147.06 16.68 146.727 19.4267 146.727 21C146.727 21.32 146.86 21.56 147.127 21.72C147.394 21.8533 147.66 21.8267 147.927 21.64C148.407 21.32 149.074 20.7467 149.927 19.92C150.807 19.0933 151.487 18.52 151.967 18.2C152.5 17.8533 153.074 18.08 153.687 18.88C153.927 19.2 154.074 19.52 154.127 19.84C154.207 20.16 154.127 20.4667 153.887 20.76C153.54 21.0267 153.02 21.48 152.327 22.12C151.66 22.76 151.06 23.3067 150.527 23.76C149.994 24.1867 149.394 24.5867 148.727 24.96C148.087 25.3067 147.46 25.4 146.847 25.24C146.234 25.0533 145.674 24.6 145.167 23.88ZM156.167 18.92C156.38 11.6133 157.087 7.04 158.287 5.2C158.687 4.53333 159.154 4.29333 159.687 4.48C160.007 4.58667 160.287 4.81333 160.527 5.16C160.794 5.48 160.954 5.8 161.007 6.12C161.06 6.41333 160.94 6.74667 160.647 7.12C160.274 7.6 159.967 8.45333 159.727 9.68C159.514 10.7467 159.287 12.4267 159.047 14.72C158.807 17.0133 158.687 18.7867 158.687 20.04C158.687 20.4133 158.834 20.68 159.127 20.84C159.447 20.9733 159.74 20.92 160.007 20.68C160.434 20.28 160.86 19.84 161.287 19.36C161.714 18.88 162.167 18.3333 162.647 17.72C163.127 17.08 163.514 16.6 163.807 16.28C164.1 16.0667 164.394 16.0133 164.687 16.12C164.98 16.2 165.247 16.3733 165.487 16.64C165.887 17.04 166.074 17.4667 166.047 17.92C166.02 18.3467 165.914 18.6933 165.727 18.96C165.567 19.2267 165.247 19.6133 164.767 20.12C164.314 20.6 164.034 20.9067 163.927 21.04C163.474 21.6267 163.14 22.04 162.927 22.28C162.74 22.52 162.38 22.8933 161.847 23.4C161.314 23.9067 160.86 24.2533 160.487 24.44C160.114 24.6 159.66 24.68 159.127 24.68C158.594 24.68 158.1 24.4933 157.647 24.12C156.607 23.2667 156.114 21.5333 156.167 18.92ZM0.8 67.8C0.533333 67.4533 0.386667 67.12 0.36 66.8C0.333333 66.48 0.413333 66.1733 0.6 65.88C0.813333 65.5867 1.01333 65.3467 1.2 65.16C1.41333 64.9467 1.69333 64.7067 2.04 64.44C2.41333 64.1467 2.68 63.92 2.84 63.76C3.02667 63.6267 3.05333 63.44 2.92 63.2C2.73333 62.9067 2.61333 62.5733 2.56 62.2C2.53333 61.8267 2.54667 61.5067 2.6 61.24C2.65333 60.9467 2.73333 60.56 2.84 60.08C2.97333 59.6 3.06667 59.2667 3.12 59.08C3.78667 55.2933 4.29333 50.2667 4.64 44C4.69333 43.04 4.88 42.3467 5.2 41.92C5.52 41.4667 5.93333 41.4667 6.44 41.92C6.97333 42.32 7.21333 42.92 7.16 43.72C7.21333 44.6267 7.13333 45.96 6.92 47.72C6.73333 49.4533 6.62667 50.44 6.6 50.68C6.6 50.7333 6.61333 50.7733 6.64 50.8C6.72 50.88 6.8 50.8667 6.88 50.76C7.04 50.44 7.4 49.6933 7.96 48.52C8.54667 47.3467 9 46.48 9.32 45.92C9.64 45.36 10.12 44.72 10.76 44C11.4267 43.2533 12.12 42.7067 12.84 42.36C13.5333 42.0667 14.2267 42.0667 14.92 42.36C15.7733 42.76 16.36 43.4533 16.68 44.44C17.0267 45.4267 17.1467 46.48 17.04 47.6C16.8533 49.8933 15.8933 52.4933 14.16 55.4C13.0667 57.2133 11.3067 59.4933 8.88 62.24C7.06667 64.2667 4.94667 66.32 2.52 68.4C2.17333 68.5867 1.85333 68.6 1.56 68.44C1.26667 68.3067 1.01333 68.0933 0.8 67.8ZM6.28 59.96C6.28 59.9867 6.28 60.0133 6.28 60.04C6.36 60.1467 6.45333 60.1467 6.56 60.04C11.0133 56.0933 13.6533 51.6933 14.48 46.84C14.56 46.4933 14.4533 46.2133 14.16 46C13.8933 45.76 13.6267 45.7467 13.36 45.96C12.5333 46.68 11.64 47.7867 10.68 49.28C9.74667 50.7733 9.06667 52.04 8.64 53.08C8 54.4933 7.21333 56.7867 6.28 59.96ZM22.3947 50C21.9147 50.7733 21.3547 51.1867 20.7147 51.24C20.208 51.2933 19.9547 51.0267 19.9547 50.44C19.9547 50.1467 20.008 49.8933 20.1147 49.68C20.5414 48.7733 20.6214 47.7067 20.3547 46.48C20.1147 45.7333 20.2347 45.12 20.7147 44.64C21.408 43.9467 22.0347 43.8267 22.5947 44.28C22.9947 44.6 23.2214 45.16 23.2747 45.96C23.4347 47.4533 23.1414 48.8 22.3947 50ZM33.7322 52.84C33.7322 52.0933 33.7589 51 33.8122 49.56C33.8922 48.0933 33.9322 47 33.9322 46.28C33.9322 46.2 33.8922 46.16 33.8122 46.16C33.7322 46.1333 33.6789 46.1467 33.6522 46.2C32.8255 48.36 31.9855 50.6667 31.1322 53.12C31.1055 53.2267 31.1189 53.32 31.1722 53.4C31.2255 53.4533 31.2922 53.4667 31.3722 53.44C31.5855 53.3867 31.8122 53.3467 32.0522 53.32C32.2922 53.2667 32.5589 53.2267 32.8522 53.2C33.1455 53.1467 33.3722 53.1067 33.5322 53.08C33.6655 53.08 33.7322 53 33.7322 52.84ZM25.0522 67.44C24.6255 67.1467 24.3589 66.68 24.2522 66.04C24.1722 65.4 24.2655 64.5867 24.5322 63.6C24.8255 62.6133 25.0922 61.7733 25.3322 61.08C25.5989 60.3867 25.9722 59.4667 26.4522 58.32C26.5855 58.0267 26.6789 57.8 26.7322 57.64C26.7855 57.48 26.7989 57.3333 26.7722 57.2C26.5055 56.5067 26.7455 55.7867 27.4922 55.04C27.6522 54.88 27.7455 54.76 27.7722 54.68C29.5322 49.6133 30.5989 46.5867 30.9722 45.6C30.9989 45.4933 31.0789 45.2667 31.2122 44.92C31.3455 44.5467 31.4389 44.2933 31.4922 44.16C31.5455 44 31.6389 43.76 31.7722 43.44C31.9055 43.12 32.0255 42.8667 32.1322 42.68C32.2389 42.4933 32.3722 42.28 32.5322 42.04C32.6922 41.8 32.8522 41.6 33.0122 41.44C33.6789 40.8267 34.3055 40.84 34.8922 41.48C35.5055 42.0933 35.8922 42.8133 36.0522 43.64C36.1855 44.3333 36.2789 45.0933 36.3322 45.92C36.3855 46.7467 36.4122 47.4533 36.4122 48.04C36.4122 48.6267 36.3989 49.4 36.3722 50.36C36.3455 51.32 36.3322 52.0533 36.3322 52.56C36.3322 52.72 36.3989 52.7733 36.5322 52.72C36.6922 52.6933 36.8922 52.6533 37.1322 52.6C37.3722 52.52 37.5322 52.48 37.6122 52.48C37.9855 52.4267 38.3722 52.6 38.7722 53C39.1722 53.4 39.3855 53.8133 39.4122 54.24C39.4655 54.6667 39.2789 54.9867 38.8522 55.2C38.6922 55.2533 37.8789 55.4 36.4122 55.64C36.2255 55.6933 36.1322 55.8 36.1322 55.96C36.1322 58.6 35.8389 62.56 35.2522 67.84C35.2255 68.16 35.0655 68.36 34.7722 68.44C34.5055 68.5467 34.2389 68.5067 33.9722 68.32C33.0389 67.76 32.6122 67.1467 32.6922 66.48C33.3055 61.3867 33.6122 58.0133 33.6122 56.36C33.6122 56.1733 33.5055 56.1067 33.2922 56.16C32.0389 56.3467 30.9855 56.5733 30.1322 56.84C30.0522 56.8667 29.9989 56.92 29.9722 57C29.8389 57.4267 29.3989 58.64 28.6522 60.64C27.9322 62.6133 27.5189 63.8 27.4122 64.2C27.3589 64.4133 27.2922 64.72 27.2122 65.12C27.1589 65.4933 27.1189 65.7333 27.0922 65.84C26.9589 66.4533 26.7189 66.96 26.3722 67.36C26.0255 67.76 25.5855 67.7867 25.0522 67.44ZM43.2881 60.84C42.9948 60.3333 42.8081 59.8133 42.7281 59.28C42.6748 58.72 42.7281 58.1333 42.8881 57.52C43.0481 56.88 43.1948 56.3467 43.3281 55.92C43.4881 55.4933 43.7281 54.92 44.0481 54.2C44.0748 54.12 44.1948 53.8133 44.4081 53.28C44.6481 52.7467 44.8348 52.32 44.9681 52C45.1281 51.6533 45.3415 51.2 45.6081 50.64C45.8748 50.0533 46.1148 49.5867 46.3281 49.24C46.5681 48.8667 46.8215 48.4933 47.0881 48.12C47.3548 47.7467 47.6215 47.4933 47.8881 47.36C48.1548 47.2 48.4081 47.16 48.6481 47.24C49.1281 47.4 49.5281 47.64 49.8481 47.96C50.1948 48.28 50.4215 48.5467 50.5281 48.76C50.6348 48.9733 50.7948 49.3333 51.0081 49.84C51.1948 50.32 51.4615 51.3867 51.8081 53.04C52.1815 54.6667 52.5948 56.1467 53.0481 57.48C53.5015 58.7867 54.0348 59.6133 54.6481 59.96C55.0748 60.2 55.5148 60.04 55.9681 59.48C56.4481 58.92 56.8481 58.2533 57.1681 57.48C57.5148 56.6533 58.0881 54.4267 58.8881 50.8C59.6881 47.1733 60.1148 45.28 60.1681 45.12C60.2481 44.8 60.4615 44.5867 60.8081 44.48C61.1548 44.3733 61.4481 44.3733 61.6881 44.48C62.0615 44.6667 62.3681 44.9867 62.6081 45.44C62.8481 45.8667 62.9281 46.2933 62.8481 46.72C62.7415 47.2267 62.5681 48.12 62.3281 49.4C62.0881 50.6533 61.8881 51.6667 61.7281 52.44C61.5681 53.1867 61.3415 54.0933 61.0481 55.16C60.7815 56.2 60.5148 57.12 60.2481 57.92C59.5015 60.0267 58.6481 61.5467 57.6881 62.48C56.7281 63.4133 55.8348 63.8267 55.0081 63.72C54.1815 63.5867 53.3815 63.1067 52.6081 62.28C51.1415 60.68 49.9681 57.3467 49.0881 52.28C49.0615 52.1733 48.9948 52.12 48.8881 52.12C48.7815 52.0933 48.7015 52.1333 48.6481 52.24C47.5015 54.4 46.6081 56.7333 45.9681 59.24C45.8615 59.6933 45.8615 60.08 45.9681 60.4C46.0215 60.5333 46.0481 60.6667 46.0481 60.8C46.0481 61.36 45.7415 61.68 45.1281 61.76C44.3281 61.8933 43.7148 61.5867 43.2881 60.84ZM77.2475 67.6C76.6342 67.1467 76.3142 66.3867 76.2875 65.32C76.2608 64.2533 76.3942 63.1733 76.6875 62.08C77.0075 60.9867 77.3275 59.76 77.6475 58.4C77.9942 57.04 78.1675 56 78.1675 55.28C78.1675 55.2 78.1408 55.16 78.0875 55.16C78.0342 55.1333 77.9808 55.16 77.9275 55.24C76.9408 56.92 75.8075 58.3867 74.5275 59.64C72.2608 61.8533 70.2742 62.84 68.5675 62.6C66.4608 62.28 65.5008 59.9867 65.6875 55.72C65.7142 54.8667 65.8475 53.9067 66.0875 52.84C66.2208 52.3333 66.3542 51.88 66.4875 51.48C66.6208 51.0533 66.7808 50.5733 66.9675 50.04C67.1542 49.5067 67.3542 49.0667 67.5675 48.72C67.7808 48.3733 68.0075 48.08 68.2475 47.84C68.4875 47.5733 68.7542 47.4533 69.0475 47.48C69.3408 47.48 69.6342 47.6267 69.9275 47.92C70.3808 48.2667 70.5142 48.88 70.3275 49.76C70.1408 50.6133 69.8342 51.44 69.4075 52.24C69.0075 53.04 68.6608 54.04 68.3675 55.24C68.1008 56.44 68.1008 57.5467 68.3675 58.56C68.5275 59.0933 68.8875 59.2933 69.4475 59.16C70.1942 59 71.0475 58.4133 72.0075 57.4C72.9675 56.36 73.8075 55.3067 74.5275 54.24C75.2475 53.1467 76.1408 51.76 77.2075 50.08C78.2742 48.3733 79.0342 47.1867 79.4875 46.52C79.6475 46.2533 79.8875 46.0933 80.2075 46.04C80.5275 45.9867 80.8075 46.0533 81.0475 46.24C81.6875 46.7733 81.9408 47.8133 81.8075 49.36C81.7275 50.6133 81.2608 53.5467 80.4075 58.16C79.5542 62.7733 79.0742 65.72 78.9675 67C78.9408 67.4267 78.7142 67.6933 78.2875 67.8C77.8608 67.9067 77.5142 67.84 77.2475 67.6ZM86.4131 60.84C86.1198 60.3333 85.9331 59.8133 85.8531 59.28C85.7998 58.72 85.8531 58.1333 86.0131 57.52C86.1731 56.88 86.3198 56.3467 86.4531 55.92C86.6131 55.4933 86.8531 54.92 87.1731 54.2C87.1998 54.12 87.3198 53.8133 87.5331 53.28C87.7731 52.7467 87.9598 52.32 88.0931 52C88.2531 51.6533 88.4665 51.2 88.7331 50.64C88.9998 50.0533 89.2398 49.5867 89.4531 49.24C89.6931 48.8667 89.9465 48.4933 90.2131 48.12C90.4798 47.7467 90.7465 47.4933 91.0131 47.36C91.2798 47.2 91.5331 47.16 91.7731 47.24C92.2531 47.4 92.6531 47.64 92.9731 47.96C93.3198 48.28 93.5465 48.5467 93.6531 48.76C93.7598 48.9733 93.9198 49.3333 94.1331 49.84C94.3198 50.32 94.5865 51.3867 94.9331 53.04C95.3065 54.6667 95.7198 56.1467 96.1731 57.48C96.6265 58.7867 97.1598 59.6133 97.7731 59.96C98.1998 60.2 98.6398 60.04 99.0931 59.48C99.5731 58.92 99.9731 58.2533 100.293 57.48C100.64 56.6533 101.213 54.4267 102.013 50.8C102.813 47.1733 103.24 45.28 103.293 45.12C103.373 44.8 103.586 44.5867 103.933 44.48C104.28 44.3733 104.573 44.3733 104.813 44.48C105.186 44.6667 105.493 44.9867 105.733 45.44C105.973 45.8667 106.053 46.2933 105.973 46.72C105.866 47.2267 105.693 48.12 105.453 49.4C105.213 50.6533 105.013 51.6667 104.853 52.44C104.693 53.1867 104.466 54.0933 104.173 55.16C103.906 56.2 103.64 57.12 103.373 57.92C102.626 60.0267 101.773 61.5467 100.813 62.48C99.8531 63.4133 98.9598 63.8267 98.1331 63.72C97.3065 63.5867 96.5065 63.1067 95.7331 62.28C94.2665 60.68 93.0931 57.3467 92.2131 52.28C92.1865 52.1733 92.1198 52.12 92.0131 52.12C91.9065 52.0933 91.8265 52.1333 91.7731 52.24C90.6265 54.4 89.7331 56.7333 89.0931 59.24C88.9865 59.6933 88.9865 60.08 89.0931 60.4C89.1465 60.5333 89.1731 60.6667 89.1731 60.8C89.1731 61.36 88.8665 61.68 88.2531 61.76C87.4531 61.8933 86.8398 61.5867 86.4131 60.84ZM110.093 54.32C110.679 52.1067 111.639 50.04 112.973 48.12C114.306 46.2 115.599 44.92 116.853 44.28C118.133 43.56 119.119 43.44 119.813 43.92C120.799 44.6133 121.199 45.4533 121.013 46.44C120.906 46.8933 120.706 47.1867 120.413 47.32C120.119 47.4267 119.813 47.32 119.493 47C119.333 46.8933 119.173 46.88 119.013 46.96C117.146 47.84 115.439 49.7333 113.893 52.64C112.346 55.5467 111.573 58.2933 111.573 60.88C111.573 61.0667 111.626 61.2267 111.733 61.36C111.866 61.4933 112.026 61.5467 112.213 61.52C112.719 61.4667 113.386 61.1467 114.213 60.56C115.066 59.9467 115.573 59.6 115.733 59.52C116.239 59.28 116.706 59.4133 117.133 59.92C117.586 60.4267 117.839 61.0267 117.893 61.72C117.893 62.12 117.799 62.3867 117.613 62.52C115.986 63.48 114.773 64.0533 113.973 64.24C112.773 64.5067 111.706 64.3333 110.773 63.72C109.866 63.08 109.359 62.04 109.253 60.6C109.119 58.92 109.399 56.8267 110.093 54.32ZM124.787 64.68C124.307 64.44 123.973 64.0267 123.787 63.44C123.6 62.8267 123.547 62.0933 123.627 61.24C123.733 60.36 123.867 59.52 124.027 58.72C124.187 57.92 124.387 57.0133 124.627 56C124.893 54.9867 125.067 54.2267 125.147 53.72C125.44 51.6933 125.747 50.4667 126.067 50.04C126.333 49.72 126.64 49.64 126.987 49.8C127.413 49.9333 127.76 50.2267 128.027 50.68C128.32 51.1067 128.413 51.5333 128.307 51.96C127.507 54.84 126.867 58.04 126.387 61.56C126.36 61.72 126.333 62.0133 126.307 62.44C126.307 62.84 126.293 63.1733 126.267 63.44C126.267 63.68 126.213 63.9733 126.107 64.32C126 64.64 125.84 64.8133 125.627 64.84C125.44 64.84 125.16 64.7867 124.787 64.68ZM128.947 68.52C128.707 67.9867 128.773 67.4933 129.147 67.04C129.547 66.5867 130.093 66.16 130.787 65.76C131.507 65.3333 132.213 64.88 132.907 64.4C133.627 63.8933 134.2 63.2 134.627 62.32C135.053 61.4133 135.173 60.3867 134.987 59.24C134.88 58.6 134.467 57.6133 133.747 56.28C133.027 54.9467 132.653 53.8933 132.627 53.12C132.6 51.7867 133.013 50.3867 133.867 48.92C134.747 47.4267 135.667 47.1333 136.627 48.04C136.867 48.28 137.067 48.5333 137.227 48.8C137.413 49.2267 137.48 49.5467 137.427 49.76C137.4 49.9467 137.28 50.1733 137.067 50.44C136.88 50.7067 136.667 50.9467 136.427 51.16C136.213 51.3733 136.013 51.72 135.827 52.2C135.64 52.68 135.533 53.2133 135.507 53.8C135.48 54.3333 135.787 55.28 136.427 56.64C137.067 57.9733 137.44 58.9733 137.547 59.64C137.973 62.2 137.493 64.3067 136.107 65.96C135.707 66.3867 135.027 66.9467 134.067 67.64C133.133 68.3333 132.293 68.84 131.547 69.16C131.067 69.4 130.56 69.4667 130.027 69.36C129.493 69.2533 129.133 68.9733 128.947 68.52ZM157.395 66.28C156.595 65.48 156.422 63.9467 156.875 61.68C157.569 58.2667 157.902 55.7333 157.875 54.08C157.875 53.92 157.862 53.5867 157.835 53.08C157.809 52.5467 157.782 52.1067 157.755 51.76C157.755 51.4133 157.809 51.04 157.915 50.64C158.022 50.2133 158.182 49.8933 158.395 49.68C158.742 49.3867 159.209 49.4267 159.795 49.8C160.035 49.9867 160.235 49.9467 160.395 49.68C160.422 49.6267 160.475 49.5333 160.555 49.4C161.115 48.3067 161.529 47.5467 161.795 47.12C162.089 46.6667 162.555 46.04 163.195 45.24C163.835 44.44 164.502 43.9333 165.195 43.72C165.915 43.48 166.675 43.4933 167.475 43.76C168.569 44.1067 169.409 44.7867 169.995 45.8C170.609 46.7867 170.902 47.8533 170.875 49C170.849 50.12 170.649 51.2267 170.275 52.32C169.875 53.28 169.129 54.44 168.035 55.8C166.969 57.16 165.715 58.3067 164.275 59.24C162.835 60.1733 161.635 60.3467 160.675 59.76C160.462 59.6533 160.329 59.72 160.275 59.96C160.169 60.7333 159.995 61.8267 159.755 63.24C159.515 64.6533 159.369 65.4933 159.315 65.76C159.235 66.32 158.982 66.6533 158.555 66.76C158.155 66.84 157.769 66.68 157.395 66.28ZM161.075 56.4C161.022 56.56 161.049 56.6933 161.155 56.8C161.289 56.88 161.422 56.88 161.555 56.8C163.369 55.8933 164.915 54.72 166.195 53.28C167.502 51.84 168.155 50.2933 168.155 48.64C168.102 47.0133 167.569 46.4 166.555 46.8C165.622 47.3067 164.755 48.32 163.955 49.84C162.462 52.6667 161.502 54.8533 161.075 56.4ZM182.852 46.64C183.545 46.4 184.092 46.2267 184.492 46.12C184.918 46.0133 185.398 46.0133 185.932 46.12C186.465 46.2267 186.905 46.5067 187.252 46.96C187.465 47.2 187.558 47.4933 187.532 47.84C187.505 48.16 187.332 48.36 187.012 48.44C184.452 49.2133 182.012 49.8 179.692 50.2C179.505 50.2267 179.385 50.3733 179.332 50.64C179.118 52.2133 178.852 53.7333 178.532 55.2C178.505 55.28 178.518 55.3467 178.572 55.4C178.625 55.4267 178.678 55.4267 178.732 55.4C178.945 55.32 179.678 55.0533 180.932 54.6C181.145 54.52 181.505 54.3733 182.012 54.16C182.545 53.92 182.932 53.7733 183.172 53.72C183.438 53.64 183.758 53.6 184.132 53.6C184.505 53.5733 184.812 53.6933 185.052 53.96C185.292 54.2267 185.505 54.6267 185.692 55.16C185.825 55.5867 185.585 55.9467 184.972 56.24C184.385 56.5333 183.305 56.9067 181.732 57.36C180.185 57.8133 178.918 58.2533 177.932 58.68C177.772 58.76 177.665 58.88 177.612 59.04C177.478 59.6267 177.318 60.4533 177.132 61.52C176.945 62.56 176.825 63.2 176.772 63.44C176.745 63.6 176.785 63.7333 176.892 63.84C177.025 63.92 177.158 63.92 177.292 63.84C177.452 63.7333 177.785 63.5067 178.292 63.16C178.798 62.8133 179.185 62.56 179.452 62.4C179.718 62.2133 180.092 62 180.572 61.76C181.052 61.4933 181.438 61.3333 181.732 61.28C182.025 61.2267 182.345 61.2133 182.692 61.24C183.038 61.24 183.318 61.3733 183.532 61.64C183.772 61.88 183.958 62.24 184.092 62.72C184.225 63.2 184.065 63.5333 183.612 63.72L182.692 64.08C182.292 64.2933 181.705 64.6667 180.932 65.2C180.185 65.7333 179.478 66.1733 178.812 66.52C178.145 66.84 177.505 67 176.892 67C176.465 67 176.078 66.92 175.732 66.76C175.252 66.52 174.865 66.28 174.572 66.04C174.305 65.7733 174.105 65.52 173.972 65.28C173.865 65.04 173.825 64.6933 173.852 64.24C173.905 63.76 173.958 63.3333 174.012 62.96C174.092 62.56 174.212 61.9333 174.372 61.08C174.558 60.2267 174.705 59.4533 174.812 58.76C174.812 58.6533 174.745 58.5467 174.612 58.44C174.318 58.2267 174.198 57.92 174.252 57.52C174.305 57.0933 174.492 56.8267 174.812 56.72C174.945 56.6933 175.038 56.6 175.092 56.44C175.412 55.3733 175.625 54.5333 175.732 53.92C175.785 53.4667 175.892 52.8133 176.052 51.96C176.212 51.1067 176.305 50.5867 176.332 50.4C176.358 50.2133 176.318 50.0667 176.212 49.96C175.945 49.64 175.798 49.4 175.772 49.24C175.638 48.6 175.892 48.1467 176.532 47.88C176.638 47.8533 176.692 47.7467 176.692 47.56V47.16C176.692 46.84 176.838 46.6267 177.132 46.52C177.798 46.3067 178.452 46.56 179.092 47.28C179.172 47.36 179.292 47.4 179.452 47.4C180.678 47.2667 181.812 47.0133 182.852 46.64ZM189.092 62.6C189.705 60.4933 190.132 58.36 190.372 56.2C190.398 55.9333 190.425 55.4267 190.452 54.68C190.478 53.9067 190.505 53.2133 190.532 52.6C190.585 51.96 190.678 51.3067 190.812 50.64C190.945 49.9733 191.172 49.48 191.492 49.16C191.812 48.84 192.212 48.7333 192.692 48.84C192.985 48.8933 193.172 48.8 193.252 48.56C193.652 47.52 193.958 46.76 194.172 46.28C194.385 45.8 194.772 45.2267 195.332 44.56C195.918 43.8667 196.572 43.4267 197.292 43.24C198.465 42.9467 199.598 43.2 200.692 44C201.785 44.7733 202.505 45.76 202.852 46.96C202.958 47.36 203.012 47.76 203.012 48.16C203.038 48.5333 202.998 48.9067 202.892 49.28C202.785 49.6533 202.665 50.0133 202.532 50.36C202.398 50.68 202.212 51.0133 201.972 51.36C201.732 51.7067 201.492 52.0267 201.252 52.32C201.038 52.5867 200.758 52.8933 200.412 53.24C200.092 53.5867 199.812 53.88 199.572 54.12C199.332 54.3333 199.038 54.6133 198.692 54.96C198.345 55.28 198.065 55.5467 197.852 55.76C197.772 55.8133 197.745 55.9067 197.772 56.04C197.798 56.1467 197.865 56.2133 197.972 56.24C198.052 56.2667 198.278 56.3467 198.652 56.48C199.052 56.6133 199.318 56.7067 199.452 56.76C199.612 56.8133 199.852 56.92 200.172 57.08C200.518 57.2133 200.758 57.3467 200.892 57.48C201.052 57.6133 201.225 57.7733 201.412 57.96C201.625 58.1467 201.772 58.36 201.852 58.6C201.932 58.8133 201.972 59.0533 201.972 59.32C201.972 59.9067 201.385 59.9733 200.212 59.52C200.025 59.44 199.732 59.3067 199.332 59.12C199.065 59.0133 198.865 58.9333 198.732 58.88C196.732 58.0267 195.052 57.7867 193.692 58.16C193.505 58.2133 193.398 58.3333 193.372 58.52C193.265 58.92 193.105 59.6267 192.892 60.64C192.705 61.6267 192.505 62.48 192.292 63.2C192.078 63.92 191.825 64.6 191.532 65.24C191.452 65.4533 191.238 65.56 190.892 65.56C190.545 65.56 190.252 65.4933 190.012 65.36C188.998 64.9067 188.692 63.9867 189.092 62.6ZM194.772 53.56C194.745 53.6667 194.772 53.76 194.852 53.84C194.958 53.92 195.052 53.9333 195.132 53.88C197.612 52.2533 199.225 50.4 199.972 48.32C200.425 46.9867 200.372 46.1467 199.812 45.8C199.705 45.72 199.572 45.68 199.412 45.68C198.718 45.68 198.025 46.1867 197.332 47.2C197.092 47.5467 196.865 47.92 196.652 48.32C196.438 48.72 196.238 49.1733 196.052 49.68C195.865 50.1867 195.718 50.5867 195.612 50.88C195.505 51.1733 195.345 51.6533 195.132 52.32C194.945 52.96 194.825 53.3733 194.772 53.56ZM209.563 62.68C210.15 62.36 210.856 61.8133 211.683 61.04C211.816 60.9067 211.83 60.8 211.723 60.72C210.736 59.2533 210.456 58.0533 210.883 57.12C211.176 56.56 211.55 56.4267 212.003 56.72C212.403 56.96 212.696 57.4667 212.883 58.24C212.91 58.4267 213.003 58.68 213.163 59C213.296 59.1867 213.416 59.2 213.523 59.04C214.616 57.76 215.496 56.56 216.163 55.44C216.59 54.6667 216.763 53.9733 216.683 53.36C216.603 52.6933 216.31 52.1333 215.803 51.68C215.376 51.2533 214.79 50.88 214.043 50.56C213.91 50.5067 213.763 50.5333 213.603 50.64C213.47 50.72 213.416 50.84 213.443 51C213.443 51.5333 213.243 51.8533 212.843 51.96C211.99 52.04 211.083 52.5467 210.123 53.48C209.19 54.4133 208.416 55.4933 207.803 56.72C207.216 57.92 206.803 59.12 206.563 60.32C206.323 61.4933 206.483 62.36 207.043 62.92C207.576 63.5067 208.416 63.4267 209.563 62.68ZM206.243 65.24C205.016 63.88 204.47 62.2 204.603 60.2C204.736 58.1733 205.296 56.1733 206.283 54.2C207.27 52.2267 208.403 50.7067 209.683 49.64C209.87 49.4533 209.923 49.2533 209.843 49.04C209.39 47.84 209.763 47.1867 210.963 47.08C212.296 46.9733 213.83 47.4933 215.563 48.64C217.803 50.1067 218.99 51.8133 219.123 53.76C219.283 54.6133 219.07 55.7067 218.483 57.04C217.923 58.3467 217.123 59.6667 216.083 61C215.976 61.1333 216.003 61.2533 216.163 61.36C216.776 61.7333 217.243 62.0533 217.563 62.32C217.91 62.5867 218.23 62.9467 218.523 63.4C218.816 63.8267 218.95 64.2933 218.923 64.8C218.923 65.1467 218.79 65.4133 218.523 65.6C218.256 65.7867 217.976 65.7733 217.683 65.56C216.456 64.92 215.31 64.1867 214.243 63.36C214.163 63.28 214.056 63.28 213.923 63.36C213.016 64.2133 212.123 64.88 211.243 65.36C210.363 65.8133 209.47 66.0667 208.563 66.12C207.656 66.1733 206.883 65.88 206.243 65.24ZM233.537 67.6C232.923 67.1467 232.603 66.3867 232.577 65.32C232.55 64.2533 232.683 63.1733 232.977 62.08C233.297 60.9867 233.617 59.76 233.937 58.4C234.283 57.04 234.457 56 234.457 55.28C234.457 55.2 234.43 55.16 234.377 55.16C234.323 55.1333 234.27 55.16 234.217 55.24C233.23 56.92 232.097 58.3867 230.817 59.64C228.55 61.8533 226.563 62.84 224.857 62.6C222.75 62.28 221.79 59.9867 221.977 55.72C222.003 54.8667 222.137 53.9067 222.377 52.84C222.51 52.3333 222.643 51.88 222.777 51.48C222.91 51.0533 223.07 50.5733 223.257 50.04C223.443 49.5067 223.643 49.0667 223.857 48.72C224.07 48.3733 224.297 48.08 224.537 47.84C224.777 47.5733 225.043 47.4533 225.337 47.48C225.63 47.48 225.923 47.6267 226.217 47.92C226.67 48.2667 226.803 48.88 226.617 49.76C226.43 50.6133 226.123 51.44 225.697 52.24C225.297 53.04 224.95 54.04 224.657 55.24C224.39 56.44 224.39 57.5467 224.657 58.56C224.817 59.0933 225.177 59.2933 225.737 59.16C226.483 59 227.337 58.4133 228.297 57.4C229.257 56.36 230.097 55.3067 230.817 54.24C231.537 53.1467 232.43 51.76 233.497 50.08C234.563 48.3733 235.323 47.1867 235.777 46.52C235.937 46.2533 236.177 46.0933 236.497 46.04C236.817 45.9867 237.097 46.0533 237.337 46.24C237.977 46.7733 238.23 47.8133 238.097 49.36C238.017 50.6133 237.55 53.5467 236.697 58.16C235.843 62.7733 235.363 65.72 235.257 67C235.23 67.4267 235.003 67.6933 234.577 67.8C234.15 67.9067 233.803 67.84 233.537 67.6ZM251.222 43.88C251.462 43.6667 251.609 43.4667 251.662 43.28C251.716 43.0933 251.649 42.9067 251.462 42.72C251.302 42.5333 251.142 42.3867 250.982 42.28C250.849 42.1733 250.622 42.04 250.302 41.88C249.982 41.6933 249.782 41.5733 249.702 41.52C248.076 40.6133 246.836 40.4533 245.982 41.04C245.822 41.1733 245.689 41.3067 245.582 41.44C245.476 41.5467 245.409 41.6533 245.382 41.76C245.382 41.8667 245.396 41.9733 245.422 42.08C245.449 42.1867 245.516 42.2933 245.622 42.4C245.729 42.5067 245.822 42.6 245.902 42.68C245.982 42.7333 246.102 42.8133 246.262 42.92C246.449 43.0267 246.582 43.1067 246.662 43.16C246.769 43.2133 246.902 43.2933 247.062 43.4C247.249 43.48 247.369 43.5333 247.422 43.56C249.156 44.52 250.422 44.6267 251.222 43.88ZM241.982 56.44C242.116 55.8533 242.729 55.52 243.822 55.44C244.062 55.3867 244.209 55.2533 244.262 55.04C244.556 54.08 244.929 52.9067 245.382 51.52C245.462 51.2267 245.396 51.08 245.182 51.08C245.129 51.08 245.076 51.0533 245.022 51C244.276 50.6267 243.982 50.1467 244.142 49.56C244.169 49.4267 244.262 49.28 244.422 49.12C244.502 49.04 244.636 48.9733 244.822 48.92C245.009 48.8667 245.196 48.8267 245.382 48.8C245.569 48.7467 245.756 48.7067 245.942 48.68C246.129 48.6533 246.236 48.64 246.262 48.64C246.449 48.64 246.609 48.5333 246.742 48.32C247.249 47.2533 247.782 46.6 248.342 46.36C248.689 46.2533 249.036 46.3467 249.382 46.64C249.756 46.9067 249.956 47.2267 249.982 47.6C249.982 47.84 250.116 47.9333 250.382 47.88C250.596 47.8267 251.142 47.72 252.022 47.56C252.929 47.4 253.422 47.3067 253.502 47.28C253.822 47.2533 254.129 47.36 254.422 47.6C254.742 47.8133 254.942 48.0667 255.022 48.36C255.289 49.1333 255.089 49.5867 254.422 49.72C253.916 49.8267 252.942 50.0133 251.502 50.28C250.062 50.5467 249.209 50.7067 248.942 50.76C248.702 50.8133 248.569 50.9333 248.542 51.12L247.342 54.52C247.289 54.6 247.302 54.68 247.382 54.76C247.462 54.84 247.556 54.8667 247.662 54.84C247.902 54.8133 248.662 54.72 249.942 54.56C250.716 54.48 251.316 54.6533 251.742 55.08C251.902 55.2933 252.022 55.4933 252.102 55.68C252.182 55.92 252.156 56.16 252.022 56.4C251.889 56.64 251.689 56.7733 251.422 56.8C250.302 56.88 248.729 57.0933 246.702 57.44C246.462 57.4933 246.316 57.6267 246.262 57.84C245.702 59.6267 245.302 60.9733 245.062 61.88C244.982 62.1733 245.102 62.3867 245.422 62.52C245.582 62.5467 245.769 62.5333 245.982 62.48C246.302 62.4267 246.742 62.3067 247.302 62.12C247.862 61.9067 248.196 61.7867 248.302 61.76C249.049 61.5467 249.662 61.7333 250.142 62.32C250.462 62.7733 250.556 63.16 250.422 63.48C250.316 63.8 250.022 64.08 249.542 64.32C249.089 64.5333 248.636 64.6933 248.182 64.8C247.756 64.9067 247.369 64.9733 247.022 65C244.782 65.1067 243.369 64.48 242.782 63.12C242.409 62.1333 242.596 60.5067 243.342 58.24C243.422 58.1067 243.356 58.0133 243.142 57.96C242.769 57.8267 242.462 57.6 242.222 57.28C242.036 56.9867 241.956 56.7067 241.982 56.44ZM2.2 106.28C1.4 105.48 1.22667 103.947 1.68 101.68C2.37333 98.2667 2.70667 95.7333 2.68 94.08C2.68 93.92 2.66667 93.5867 2.64 93.08C2.61333 92.5467 2.58667 92.1067 2.56 91.76C2.56 91.4133 2.61333 91.04 2.72 90.64C2.82667 90.2133 2.98667 89.8933 3.2 89.68C3.54667 89.3867 4.01333 89.4267 4.6 89.8C4.84 89.9867 5.04 89.9467 5.2 89.68C5.22667 89.6267 5.28 89.5333 5.36 89.4C5.92 88.3067 6.33333 87.5467 6.6 87.12C6.89333 86.6667 7.36 86.04 8 85.24C8.64 84.44 9.30667 83.9333 10 83.72C10.72 83.48 11.48 83.4933 12.28 83.76C13.3733 84.1067 14.2133 84.7867 14.8 85.8C15.4133 86.7867 15.7067 87.8533 15.68 89C15.6533 90.12 15.4533 91.2267 15.08 92.32C14.68 93.28 13.9333 94.44 12.84 95.8C11.7733 97.16 10.52 98.3067 9.08 99.24C7.64 100.173 6.44 100.347 5.48 99.76C5.26667 99.6533 5.13333 99.72 5.08 99.96C4.97333 100.733 4.8 101.827 4.56 103.24C4.32 104.653 4.17333 105.493 4.12 105.76C4.04 106.32 3.78667 106.653 3.36 106.76C2.96 106.84 2.57333 106.68 2.2 106.28ZM5.88 96.4C5.82667 96.56 5.85333 96.6933 5.96 96.8C6.09333 96.88 6.22667 96.88 6.36 96.8C8.17333 95.8933 9.72 94.72 11 93.28C12.3067 91.84 12.96 90.2933 12.96 88.64C12.9067 87.0133 12.3733 86.4 11.36 86.8C10.4267 87.3067 9.56 88.32 8.76 89.84C7.26667 92.6667 6.30667 94.8533 5.88 96.4ZM30.2163 107.6C29.6029 107.147 29.2829 106.387 29.2563 105.32C29.2296 104.253 29.3629 103.173 29.6563 102.08C29.9763 100.987 30.2963 99.76 30.6163 98.4C30.9629 97.04 31.1363 96 31.1363 95.28C31.1363 95.2 31.1096 95.16 31.0563 95.16C31.0029 95.1333 30.9496 95.16 30.8963 95.24C29.9096 96.92 28.7763 98.3867 27.4963 99.64C25.2296 101.853 23.2429 102.84 21.5363 102.6C19.4296 102.28 18.4696 99.9867 18.6563 95.72C18.6829 94.8667 18.8163 93.9067 19.0563 92.84C19.1896 92.3333 19.3229 91.88 19.4563 91.48C19.5896 91.0533 19.7496 90.5733 19.9363 90.04C20.1229 89.5067 20.3229 89.0667 20.5363 88.72C20.7496 88.3733 20.9763 88.08 21.2163 87.84C21.4563 87.5733 21.7229 87.4533 22.0163 87.48C22.3096 87.48 22.6029 87.6267 22.8963 87.92C23.3496 88.2667 23.4829 88.88 23.2963 89.76C23.1096 90.6133 22.8029 91.44 22.3763 92.24C21.9763 93.04 21.6296 94.04 21.3363 95.24C21.0696 96.44 21.0696 97.5467 21.3363 98.56C21.4963 99.0933 21.8563 99.2933 22.4163 99.16C23.1629 99 24.0163 98.4133 24.9763 97.4C25.9363 96.36 26.7763 95.3067 27.4963 94.24C28.2163 93.1467 29.1096 91.76 30.1763 90.08C31.2429 88.3733 32.0029 87.1867 32.4563 86.52C32.6163 86.2533 32.8563 86.0933 33.1763 86.04C33.4963 85.9867 33.7763 86.0533 34.0163 86.24C34.6563 86.7733 34.9096 87.8133 34.7763 89.36C34.6963 90.6133 34.2296 93.5467 33.3763 98.16C32.5229 102.773 32.0429 105.72 31.9363 107C31.9096 107.427 31.6829 107.693 31.2563 107.8C30.8296 107.907 30.4829 107.84 30.2163 107.6ZM48.8219 106.16C47.1419 105.707 46.4352 103.76 46.7019 100.32C46.6485 100.187 46.5685 100.173 46.4619 100.28C46.1419 100.76 45.7685 101.24 45.3419 101.72C44.9419 102.2 44.4885 102.693 43.9819 103.2C43.4752 103.68 42.9685 104.053 42.4619 104.32C41.9819 104.587 41.5019 104.747 41.0219 104.8C40.5419 104.853 40.1019 104.68 39.7019 104.28C39.3285 103.88 39.0219 103.267 38.7819 102.44C38.5952 101.8 38.5819 100.893 38.7419 99.72C38.9285 98.5467 39.2485 97.2133 39.7019 95.72C40.1552 94.2 40.5819 92.8533 40.9819 91.68C41.4085 90.48 41.8885 89.16 42.4219 87.72C42.9819 86.2533 43.3152 85.3733 43.4219 85.08C44.6752 81.4267 46.5019 80.76 48.9019 83.08C48.9819 83.16 49.0619 83.24 49.1419 83.32C49.8085 84.0933 49.9552 84.7333 49.5819 85.24C49.2352 85.6933 48.6752 85.6267 47.9019 85.04C47.5019 84.8 47.1819 84.84 46.9419 85.16C45.3419 87.48 43.5685 92.6533 41.6219 100.68C41.6219 100.707 41.6219 100.733 41.6219 100.76C41.6485 100.867 41.7019 100.867 41.7819 100.76C42.5285 100.093 43.4219 99 44.4619 97.48C45.5019 95.9333 46.2619 94.8933 46.7419 94.36C47.0085 94.0933 47.3419 93.96 47.7419 93.96C48.1419 93.96 48.4752 94.0933 48.7419 94.36C49.0352 94.6533 49.2219 94.9467 49.3019 95.24C49.4352 95.5333 49.5152 95.8667 49.5419 96.24C49.5952 96.6133 49.6085 96.9333 49.5819 97.2C49.5552 97.44 49.5152 97.8 49.4619 98.28C49.4085 98.7333 49.3685 99.0533 49.3419 99.24C49.2085 100.813 49.2352 102.28 49.4219 103.64C49.4219 103.693 49.4619 103.893 49.5419 104.24C49.6485 104.587 49.7019 104.853 49.7019 105.04C49.7285 105.2 49.7285 105.4 49.7019 105.64C49.7019 105.88 49.6219 106.053 49.4619 106.16C49.3019 106.24 49.0885 106.24 48.8219 106.16ZM66.1928 107.6C65.5795 107.147 65.2595 106.387 65.2328 105.32C65.2061 104.253 65.3395 103.173 65.6328 102.08C65.9528 100.987 66.2728 99.76 66.5928 98.4C66.9395 97.04 67.1128 96 67.1128 95.28C67.1128 95.2 67.0861 95.16 67.0328 95.16C66.9795 95.1333 66.9261 95.16 66.8728 95.24C65.8861 96.92 64.7528 98.3867 63.4728 99.64C61.2061 101.853 59.2195 102.84 57.5128 102.6C55.4061 102.28 54.4461 99.9867 54.6328 95.72C54.6595 94.8667 54.7928 93.9067 55.0328 92.84C55.1661 92.3333 55.2995 91.88 55.4328 91.48C55.5661 91.0533 55.7261 90.5733 55.9128 90.04C56.0995 89.5067 56.2995 89.0667 56.5128 88.72C56.7261 88.3733 56.9528 88.08 57.1928 87.84C57.4328 87.5733 57.6995 87.4533 57.9928 87.48C58.2861 87.48 58.5795 87.6267 58.8728 87.92C59.3261 88.2667 59.4595 88.88 59.2728 89.76C59.0861 90.6133 58.7795 91.44 58.3528 92.24C57.9528 93.04 57.6061 94.04 57.3128 95.24C57.0461 96.44 57.0461 97.5467 57.3128 98.56C57.4728 99.0933 57.8328 99.2933 58.3928 99.16C59.1395 99 59.9928 98.4133 60.9528 97.4C61.9128 96.36 62.7528 95.3067 63.4728 94.24C64.1928 93.1467 65.0861 91.76 66.1528 90.08C67.2195 88.3733 67.9795 87.1867 68.4328 86.52C68.5928 86.2533 68.8328 86.0933 69.1528 86.04C69.4728 85.9867 69.7528 86.0533 69.9928 86.24C70.6328 86.7733 70.8861 87.8133 70.7528 89.36C70.6728 90.6133 70.2061 93.5467 69.3528 98.16C68.4995 102.773 68.0195 105.72 67.9128 107C67.8861 107.427 67.6595 107.693 67.2328 107.8C66.8061 107.907 66.4595 107.84 66.1928 107.6ZM75.9584 104.68C75.4784 104.44 75.1451 104.027 74.9584 103.44C74.7718 102.827 74.7184 102.093 74.7984 101.24C74.9051 100.36 75.0384 99.52 75.1984 98.72C75.3584 97.92 75.5584 97.0133 75.7984 96C76.0651 94.9867 76.2384 94.2267 76.3184 93.72C76.6118 91.6933 76.9184 90.4667 77.2384 90.04C77.5051 89.72 77.8118 89.64 78.1584 89.8C78.5851 89.9333 78.9318 90.2267 79.1984 90.68C79.4918 91.1067 79.5851 91.5333 79.4784 91.96C78.6784 94.84 78.0384 98.04 77.5584 101.56C77.5318 101.72 77.5051 102.013 77.4784 102.44C77.4784 102.84 77.4651 103.173 77.4384 103.44C77.4384 103.68 77.3851 103.973 77.2784 104.32C77.1718 104.64 77.0118 104.813 76.7984 104.84C76.6118 104.84 76.3318 104.787 75.9584 104.68ZM80.1184 108.52C79.8784 107.987 79.9451 107.493 80.3184 107.04C80.7184 106.587 81.2651 106.16 81.9584 105.76C82.6784 105.333 83.3851 104.88 84.0784 104.4C84.7984 103.893 85.3718 103.2 85.7984 102.32C86.2251 101.413 86.3451 100.387 86.1584 99.24C86.0518 98.6 85.6384 97.6133 84.9184 96.28C84.1984 94.9467 83.8251 93.8933 83.7984 93.12C83.7718 91.7867 84.1851 90.3867 85.0384 88.92C85.9184 87.4267 86.8384 87.1333 87.7984 88.04C88.0384 88.28 88.2384 88.5333 88.3984 88.8C88.5851 89.2267 88.6518 89.5467 88.5984 89.76C88.5718 89.9467 88.4518 90.1733 88.2384 90.44C88.0518 90.7067 87.8384 90.9467 87.5984 91.16C87.3851 91.3733 87.1851 91.72 86.9984 92.2C86.8118 92.68 86.7051 93.2133 86.6784 93.8C86.6518 94.3333 86.9584 95.28 87.5984 96.64C88.2384 97.9733 88.6118 98.9733 88.7184 99.64C89.1451 102.2 88.6651 104.307 87.2784 105.96C86.8784 106.387 86.1984 106.947 85.2384 107.64C84.3051 108.333 83.4651 108.84 82.7184 109.16C82.2384 109.4 81.7318 109.467 81.1984 109.36C80.6651 109.253 80.3051 108.973 80.1184 108.52ZM123.807 84C124.287 84.8267 124.221 85.3733 123.607 85.64C122.941 85.9067 122.221 86.1467 121.447 86.36C120.701 86.5733 119.807 86.8133 118.767 87.08C117.754 87.32 116.981 87.5067 116.447 87.64C116.261 87.6933 116.154 87.7867 116.127 87.92C115.647 89.8133 115.207 92.6267 114.807 96.36C114.407 100.067 114.101 102.52 113.887 103.72C113.834 104.04 113.661 104.253 113.367 104.36C113.101 104.44 112.847 104.373 112.607 104.16C112.021 103.733 111.701 103.053 111.647 102.12C111.594 101.187 111.661 100.387 111.847 99.72C112.114 98.12 112.421 95.8267 112.767 92.84C112.901 91.5867 113.061 90.3733 113.247 89.2C113.274 89.0667 113.234 88.9733 113.127 88.92C113.021 88.84 112.914 88.8267 112.807 88.88C112.221 89.12 111.621 89.4667 111.007 89.92C110.394 90.3733 110.087 90.7733 110.087 91.12C110.087 91.7333 109.847 92.0133 109.367 91.96C108.781 91.9333 108.327 91.6 108.007 90.96C107.927 90.8 107.874 90.6533 107.847 90.52C107.714 89.88 107.741 89.3067 107.927 88.8C108.114 88.2667 108.381 87.84 108.727 87.52C109.074 87.2 109.567 86.8933 110.207 86.6C110.847 86.28 111.394 86.0533 111.847 85.92C112.301 85.76 112.914 85.5867 113.687 85.4C114.461 85.1867 114.967 85.04 115.207 84.96C116.034 84.72 117.207 84.3867 118.727 83.96C120.274 83.5333 121.434 83.2 122.207 82.96C122.527 82.88 122.834 82.96 123.127 83.2C123.421 83.4133 123.647 83.68 123.807 84ZM125.798 107.8C124.945 107.16 124.625 106.44 124.838 105.64C125.238 104.173 125.732 101.32 126.318 97.08C126.905 92.8133 127.625 89.6 128.478 87.44C128.638 87.1467 128.865 87.0267 129.158 87.08C129.452 87.1067 129.718 87.24 129.958 87.48C130.252 87.7467 130.425 88.0933 130.478 88.52C130.532 88.92 130.505 89.2933 130.398 89.64C130.292 89.96 130.172 90.3467 130.038 90.8C129.932 91.2267 129.878 91.5733 129.878 91.84C129.878 91.8933 129.892 91.9333 129.918 91.96C130.025 92.04 130.092 92.0267 130.118 91.92C130.225 91.68 130.612 90.7867 131.278 89.24C131.972 87.6933 132.585 86.3733 133.118 85.28C133.652 84.16 134.385 82.9333 135.318 81.6C136.278 80.24 137.225 79.2267 138.158 78.56C138.825 78.08 139.558 77.9333 140.358 78.12C141.158 78.28 141.758 78.72 142.158 79.44C142.638 80.5867 142.812 81.8 142.678 83.08C142.545 84.36 142.238 85.5467 141.758 86.64C141.332 87.6267 140.625 88.72 139.638 89.92C138.678 91.12 137.812 92.0933 137.038 92.84C136.292 93.56 135.292 94.48 134.038 95.6C132.812 96.6933 132.105 97.3333 131.918 97.52C131.545 97.8933 131.305 98.3467 131.198 98.88C131.118 99.3867 131.212 99.88 131.478 100.36C131.958 101.187 132.785 101.787 133.958 102.16C134.678 102.373 135.505 102.48 136.438 102.48C136.785 102.48 137.092 102.64 137.358 102.96C137.652 103.28 137.825 103.627 137.878 104C138.038 104.907 137.638 105.427 136.678 105.56C135.398 105.72 133.878 105.293 132.118 104.28C130.305 103.213 129.398 102.147 129.398 101.08C129.398 101.027 129.385 101 129.358 101C129.278 100.973 129.225 101 129.198 101.08C128.132 103.853 127.398 105.96 126.998 107.4C126.918 107.667 126.758 107.84 126.518 107.92C126.278 108 126.038 107.96 125.798 107.8ZM132.798 92.48C132.745 92.5867 132.758 92.6667 132.838 92.72C132.918 92.7733 132.998 92.76 133.078 92.68C133.212 92.5467 133.585 92.1733 134.198 91.56C134.838 90.92 135.252 90.5067 135.438 90.32C135.652 90.1067 136.025 89.72 136.558 89.16C137.092 88.5733 137.465 88.1333 137.678 87.84C137.918 87.52 138.225 87.08 138.598 86.52C138.998 85.96 139.292 85.48 139.478 85.08C139.665 84.6533 139.852 84.1733 140.038 83.64C140.225 83.08 140.358 82.5333 140.438 82C140.492 81.7333 140.398 81.5333 140.158 81.4C139.918 81.2667 139.692 81.28 139.478 81.44C138.892 81.8667 138.345 82.3733 137.838 82.96C137.332 83.52 136.852 84.1867 136.398 84.96C135.972 85.7333 135.625 86.3867 135.358 86.92C135.092 87.4533 134.732 88.2133 134.278 89.2C133.852 90.1867 133.545 90.8667 133.358 91.24C133.332 91.2933 133.252 91.48 133.118 91.8C132.985 92.0933 132.878 92.32 132.798 92.48ZM149.85 105.56C148.89 105.933 147.943 105.827 147.01 105.24C145.623 104.36 144.676 103.067 144.17 101.36C143.69 99.6267 143.596 97.9067 143.89 96.2C144.183 94.4667 144.716 92.8667 145.49 91.4C145.57 91.2667 145.676 90.9467 145.81 90.44C145.97 89.9333 146.143 89.5467 146.33 89.28C146.516 88.9867 146.756 88.84 147.05 88.84C147.21 88.84 147.356 88.76 147.49 88.6C148.396 87.56 149.383 87.04 150.45 87.04C151.516 87.04 152.543 87.4533 153.53 88.28C154.516 89.1067 155.156 90.1067 155.45 91.28C155.743 92.4533 155.703 94.0533 155.33 96.08C154.983 98.1067 154.303 100.08 153.29 102C152.276 103.893 151.13 105.08 149.85 105.56ZM146.45 98.76C146.37 99.6667 146.423 100.52 146.61 101.32C146.823 102.093 147.17 102.533 147.65 102.64C148.263 102.773 148.943 102.347 149.69 101.36C150.436 100.373 150.996 99.4533 151.37 98.6C152.036 97 152.596 94.8133 153.05 92.04C153.156 91.32 152.956 90.76 152.45 90.36C151.943 89.96 151.383 89.96 150.77 90.36C150.156 90.76 149.476 91.5733 148.73 92.8C147.343 95.2 146.583 97.1867 146.45 98.76ZM159.57 107.32C158.53 106.787 158.29 105.72 158.85 104.12C159.116 103.453 159.53 101.853 160.09 99.32C160.17 99.1067 160.116 98.88 159.93 98.64C159.716 98.24 159.65 97.9333 159.73 97.72C159.81 97.5067 160.036 97.2133 160.41 96.84C160.543 96.76 160.623 96.64 160.65 96.48C160.783 95.8933 160.97 94.3067 161.21 91.72C161.476 89.1067 161.916 87.1733 162.53 85.92C162.823 85.4667 163.25 85.3867 163.81 85.68C164.396 85.9467 164.81 86.32 165.05 86.8C165.21 87.2 165.223 87.4933 165.09 87.68C164.61 88.64 164.37 89.6267 164.37 90.64C164.37 90.72 164.41 90.7733 164.49 90.8C164.57 90.8267 164.636 90.8 164.69 90.72C165.57 89.1733 166.45 87.9067 167.33 86.92C168.236 85.9333 169.343 85.2933 170.65 85C171.796 84.76 172.863 85.0267 173.85 85.8C174.863 86.5467 175.223 87.48 174.93 88.6C174.77 89.24 174.476 89.8933 174.05 90.56C173.65 91.2267 173.29 91.7467 172.97 92.12C172.676 92.4667 172.196 93 171.53 93.72C171.37 93.9333 171.41 94.0667 171.65 94.12C174.69 94.8933 176.103 95.96 175.89 97.32C175.676 98.84 173.743 100.48 170.09 102.24C167.023 103.707 164.383 104.587 162.17 104.88C161.85 104.933 161.676 105.093 161.65 105.36C161.623 105.413 161.596 105.52 161.57 105.68C161.543 105.84 161.516 105.96 161.49 106.04C161.463 106.093 161.423 106.2 161.37 106.36C161.343 106.493 161.316 106.6 161.29 106.68C161.263 106.733 161.223 106.827 161.17 106.96C161.116 107.067 161.063 107.147 161.01 107.2C160.956 107.253 160.89 107.307 160.81 107.36C160.756 107.44 160.69 107.493 160.61 107.52C160.53 107.547 160.45 107.56 160.37 107.56C160.263 107.56 159.996 107.48 159.57 107.32ZM163.13 101.44C163.103 101.52 163.116 101.587 163.17 101.64C163.223 101.693 163.276 101.707 163.33 101.68C167.49 100.533 170.463 99.0667 172.25 97.28C172.383 97.1467 172.423 97 172.37 96.84C172.343 96.6533 172.236 96.5333 172.05 96.48C171.516 96.4267 171.103 96.4 170.81 96.4C169.183 96.4 167.13 97.0667 164.65 98.4C164.543 98.4267 164.45 98.5067 164.37 98.64C164.29 98.7467 164.236 98.8 164.21 98.8C164.183 98.8267 164.17 98.8667 164.17 98.92C164.17 99.1867 164.116 99.4667 164.01 99.76C163.903 100.027 163.743 100.333 163.53 100.68C163.343 101 163.21 101.253 163.13 101.44ZM167.05 92.84C166.97 92.9733 167.01 93.0933 167.17 93.2C167.33 93.3067 167.463 93.3067 167.57 93.2C169.25 91.76 170.623 90.1333 171.69 88.32C171.77 88.1867 171.756 88.0667 171.65 87.96C171.543 87.8267 171.423 87.7867 171.29 87.84C169.903 88.5333 168.49 90.2 167.05 92.84ZM178.85 101.64C178.85 101.933 178.943 102.2 179.13 102.44C179.556 103.027 180.143 103.32 180.89 103.32C181.556 103.293 181.85 102.973 181.77 102.36C181.716 101.907 181.77 101.493 181.93 101.12C182.063 100.8 182.423 99.8533 183.01 98.28C183.623 96.68 184.103 95.4533 184.45 94.6C184.503 94.3867 184.636 94.28 184.85 94.28C185.09 94.28 185.476 94.2533 186.01 94.2C186.543 94.1467 186.956 94.12 187.25 94.12C187.436 94.12 187.503 94.2267 187.45 94.44C186.97 97.1067 186.316 100.04 185.49 103.24C185.356 103.667 185.423 104.08 185.69 104.48C185.983 104.88 186.343 105.147 186.77 105.28C186.956 105.387 187.13 105.44 187.29 105.44C187.583 105.44 187.796 105.347 187.93 105.16C188.063 104.973 188.196 104.653 188.33 104.2C189.21 100.68 189.81 98.0267 190.13 96.24C190.183 96.0533 190.303 95.2933 190.49 93.96C190.516 93.8533 190.61 93.7467 190.77 93.64C191.996 93.4267 192.863 93.1467 193.37 92.8C193.903 92.4533 193.97 92 193.57 91.44C193.143 90.9067 192.37 90.64 191.25 90.64C191.116 90.64 191.05 90.5467 191.05 90.36C191.183 89.3467 191.37 88.0133 191.61 86.36C191.956 84.0667 191.516 82.6267 190.29 82.04C189.516 81.6667 188.663 81.8533 187.73 82.6C186.823 83.3467 185.996 84.4 185.25 85.76C184.503 87.12 183.903 88.2933 183.45 89.28C182.996 90.24 182.65 91.0533 182.41 91.72C182.276 91.8533 182.17 91.92 182.09 91.92C181.023 91.92 180.236 91.9467 179.73 92C178.956 92.1867 178.636 92.5867 178.77 93.2C178.93 93.8133 179.316 94.2533 179.93 94.52C180.223 94.7067 180.49 94.8133 180.73 94.84C180.97 94.8933 181.05 95.0267 180.97 95.24C180.863 95.5067 180.636 96.0133 180.29 96.76C179.943 97.5067 179.69 98.08 179.53 98.48C179.396 98.8533 179.25 99.3467 179.09 99.96C178.93 100.573 178.85 101.133 178.85 101.64ZM185.85 91.4C185.93 91.2133 186.143 90.72 186.49 89.92C186.836 89.12 187.143 88.4933 187.41 88.04C187.676 87.56 187.996 87.1333 188.37 86.76C188.53 86.6 188.61 86.64 188.61 86.88C188.61 87.3067 188.57 87.76 188.49 88.24C188.436 88.72 188.356 89.2533 188.25 89.84C188.143 90.4267 188.063 90.88 188.01 91.2C188.01 91.3867 187.89 91.48 187.65 91.48C187.463 91.48 187.183 91.52 186.81 91.6C186.463 91.68 186.21 91.72 186.05 91.72C185.863 91.72 185.796 91.6133 185.85 91.4ZM198.025 107.8C197.172 107.16 196.852 106.44 197.065 105.64C197.465 104.173 197.958 101.32 198.545 97.08C199.132 92.8133 199.852 89.6 200.705 87.44C200.865 87.1467 201.092 87.0267 201.385 87.08C201.678 87.1067 201.945 87.24 202.185 87.48C202.478 87.7467 202.652 88.0933 202.705 88.52C202.758 88.92 202.732 89.2933 202.625 89.64C202.518 89.96 202.398 90.3467 202.265 90.8C202.158 91.2267 202.105 91.5733 202.105 91.84C202.105 91.8933 202.118 91.9333 202.145 91.96C202.252 92.04 202.318 92.0267 202.345 91.92C202.452 91.68 202.838 90.7867 203.505 89.24C204.198 87.6933 204.812 86.3733 205.345 85.28C205.878 84.16 206.612 82.9333 207.545 81.6C208.505 80.24 209.452 79.2267 210.385 78.56C211.052 78.08 211.785 77.9333 212.585 78.12C213.385 78.28 213.985 78.72 214.385 79.44C214.865 80.5867 215.038 81.8 214.905 83.08C214.772 84.36 214.465 85.5467 213.985 86.64C213.558 87.6267 212.852 88.72 211.865 89.92C210.905 91.12 210.038 92.0933 209.265 92.84C208.518 93.56 207.518 94.48 206.265 95.6C205.038 96.6933 204.332 97.3333 204.145 97.52C203.772 97.8933 203.532 98.3467 203.425 98.88C203.345 99.3867 203.438 99.88 203.705 100.36C204.185 101.187 205.012 101.787 206.185 102.16C206.905 102.373 207.732 102.48 208.665 102.48C209.012 102.48 209.318 102.64 209.585 102.96C209.878 103.28 210.052 103.627 210.105 104C210.265 104.907 209.865 105.427 208.905 105.56C207.625 105.72 206.105 105.293 204.345 104.28C202.532 103.213 201.625 102.147 201.625 101.08C201.625 101.027 201.612 101 201.585 101C201.505 100.973 201.452 101 201.425 101.08C200.358 103.853 199.625 105.96 199.225 107.4C199.145 107.667 198.985 107.84 198.745 107.92C198.505 108 198.265 107.96 198.025 107.8ZM205.025 92.48C204.972 92.5867 204.985 92.6667 205.065 92.72C205.145 92.7733 205.225 92.76 205.305 92.68C205.438 92.5467 205.812 92.1733 206.425 91.56C207.065 90.92 207.478 90.5067 207.665 90.32C207.878 90.1067 208.252 89.72 208.785 89.16C209.318 88.5733 209.692 88.1333 209.905 87.84C210.145 87.52 210.452 87.08 210.825 86.52C211.225 85.96 211.518 85.48 211.705 85.08C211.892 84.6533 212.078 84.1733 212.265 83.64C212.452 83.08 212.585 82.5333 212.665 82C212.718 81.7333 212.625 81.5333 212.385 81.4C212.145 81.2667 211.918 81.28 211.705 81.44C211.118 81.8667 210.572 82.3733 210.065 82.96C209.558 83.52 209.078 84.1867 208.625 84.96C208.198 85.7333 207.852 86.3867 207.585 86.92C207.318 87.4533 206.958 88.2133 206.505 89.2C206.078 90.1867 205.772 90.8667 205.585 91.24C205.558 91.2933 205.478 91.48 205.345 91.8C205.212 92.0933 205.105 92.32 205.025 92.48ZM247.65 90.56C248.024 90.64 248.317 90.8933 248.53 91.32C248.77 91.72 248.837 92.12 248.73 92.52C248.65 92.8933 248.424 93.1067 248.05 93.16C247.197 93.2933 245.384 93.6 242.61 94.08C239.864 94.5333 237.65 94.8533 235.97 95.04C235.864 95.04 235.784 95.12 235.73 95.28C235.197 98.1867 234.544 101.013 233.77 103.76C233.744 103.84 233.69 104.013 233.61 104.28C233.557 104.547 233.504 104.747 233.45 104.88C233.424 104.987 233.357 105.16 233.25 105.4C233.17 105.613 233.077 105.76 232.97 105.84C232.89 105.92 232.784 106 232.65 106.08C232.517 106.133 232.357 106.12 232.17 106.04C232.01 105.933 231.824 105.787 231.61 105.6C231.29 105.28 231.09 104.907 231.01 104.48C230.957 104.053 230.97 103.693 231.05 103.4C231.13 103.08 231.277 102.64 231.49 102.08C231.704 101.52 231.837 101.147 231.89 100.96C232.13 100.187 232.504 98.5733 233.01 96.12C233.064 95.9333 232.984 95.8 232.77 95.72C232.557 95.6667 232.397 95.5733 232.29 95.44C231.517 94.6667 231.29 93.9733 231.61 93.36C231.957 92.72 232.584 92.4 233.49 92.4C233.597 92.4 233.65 92.36 233.65 92.28C233.704 91.9067 233.824 91.2533 234.01 90.32C234.197 89.3867 234.33 88.6533 234.41 88.12C234.41 88.0133 234.344 87.92 234.21 87.84C233.917 87.7067 233.664 87.5067 233.45 87.24C233.184 86.8933 233.01 86.5733 232.93 86.28C232.877 85.9867 232.93 85.7467 233.09 85.56C233.25 85.3467 233.424 85.1733 233.61 85.04C233.824 84.88 234.117 84.7467 234.49 84.64C234.89 84.5333 235.21 84.4533 235.45 84.4C235.717 84.3467 236.064 84.2933 236.49 84.24C236.917 84.16 237.197 84.1067 237.33 84.08C237.624 84.0267 238.41 83.9067 239.69 83.72C240.997 83.5333 241.864 83.3867 242.29 83.28C243.197 83.04 243.877 83.36 244.33 84.24C244.784 85.1733 244.717 85.7067 244.13 85.84C243.464 86 242.29 86.2133 240.61 86.48C238.957 86.72 237.984 86.8667 237.69 86.92C237.584 86.9733 237.504 87.0533 237.45 87.16C237.21 88.0133 236.917 89.1733 236.57 90.64C236.57 90.6667 236.53 90.8533 236.45 91.2C236.37 91.52 236.33 91.76 236.33 91.92C236.33 92.1067 236.41 92.1733 236.57 92.12C236.65 92.0933 237.17 91.9867 238.13 91.8C239.09 91.6133 239.917 91.4667 240.61 91.36C241.33 91.2267 242.277 91.0667 243.45 90.88C244.624 90.6667 245.464 90.56 245.97 90.56C246.504 90.5333 247.064 90.5333 247.65 90.56ZM257.224 104.6C254.824 105.667 253.051 105.653 251.904 104.56C251.184 103.893 250.731 103.147 250.544 102.32C250.384 101.467 250.384 100.613 250.544 99.76C250.704 98.9067 250.958 97.4533 251.304 95.4C251.651 93.32 251.904 91.24 252.064 89.16C252.064 89.0267 251.958 88.8933 251.744 88.76C251.424 88.6 251.118 88.3467 250.824 88C250.531 87.6267 250.331 87.2667 250.224 86.92C250.144 86.5733 250.291 86.2933 250.664 86.08C250.824 86 251.304 85.8933 252.104 85.76C252.238 85.76 252.331 85.68 252.384 85.52C252.944 83.9467 253.731 83.88 254.744 85.32C254.904 85.4267 255.024 85.48 255.104 85.48C255.798 85.4267 257.171 85.16 259.224 84.68C261.304 84.2 262.664 83.9067 263.304 83.8C263.624 83.7733 263.971 83.9333 264.344 84.28C264.718 84.6 264.971 84.9467 265.104 85.32C265.424 86.2267 265.064 86.7467 264.024 86.88C262.664 87.0133 261.078 87.28 259.264 87.68C257.451 88.08 256.064 88.3467 255.104 88.48C254.971 88.5333 254.878 88.6267 254.824 88.76C254.824 89.08 254.704 90.04 254.464 91.64C254.251 93.2133 254.131 94.2267 254.104 94.68C254.104 94.7867 254.131 94.88 254.184 94.96C254.264 95.0133 254.344 95.0267 254.424 95C255.091 94.92 255.958 94.7733 257.024 94.56C258.091 94.3467 258.878 94.2 259.384 94.12C259.731 94.0933 260.051 94.2133 260.344 94.48C260.664 94.7467 260.904 95.08 261.064 95.48C261.251 95.7467 261.318 96.0667 261.264 96.44C261.238 96.8133 261.064 97.0267 260.744 97.08L254.064 98.2C253.851 98.2 253.718 98.2933 253.664 98.48C253.344 99.84 253.198 100.747 253.224 101.2C253.251 101.52 253.384 101.76 253.624 101.92C253.891 102.08 254.171 102.093 254.464 101.96C254.731 101.853 255.104 101.707 255.584 101.52C256.091 101.307 256.518 101.133 256.864 101C257.211 100.84 257.611 100.693 258.064 100.56C258.518 100.427 258.891 100.373 259.184 100.4C259.504 100.4 259.798 100.453 260.064 100.56C260.358 100.667 260.571 100.893 260.704 101.24C260.864 101.587 260.944 102.027 260.944 102.56C260.944 102.667 260.904 102.773 260.824 102.88C260.771 102.96 260.678 103.04 260.544 103.12C260.438 103.173 260.331 103.227 260.224 103.28C260.118 103.307 259.958 103.36 259.744 103.44C259.558 103.52 259.424 103.573 259.344 103.6C259.078 103.707 258.704 103.88 258.224 104.12C257.771 104.36 257.438 104.52 257.224 104.6ZM274.281 103.88C274.228 103.827 274.188 103.8 274.161 103.8C273.734 103.8 273.481 103.48 273.401 102.84C273.321 102.2 273.374 101.667 273.561 101.24C273.774 100.653 274.094 99.6933 274.521 98.36C274.974 97.0267 275.334 95.9733 275.601 95.2C275.894 94.4 276.294 93.48 276.801 92.44C277.334 91.4 277.881 90.5067 278.441 89.76C278.868 89.2267 279.361 89.08 279.921 89.32C280.401 89.5067 280.814 89.92 281.161 90.56C281.534 91.1733 281.788 91.7333 281.921 92.24C282.081 92.7467 282.281 93.48 282.521 94.44C282.708 95.16 282.854 95.7333 282.961 96.16C283.094 96.56 283.268 96.9333 283.481 97.28C283.721 97.6 283.974 97.72 284.241 97.64C284.534 97.5333 284.894 97.2133 285.321 96.68C285.774 96.1467 286.308 95.3467 286.921 94.28C287.294 93.6133 287.601 92.96 287.841 92.32C288.081 91.68 288.374 90.84 288.721 89.8C289.068 88.76 289.321 88 289.481 87.52C289.668 86.96 290.054 86.68 290.641 86.68C291.228 86.68 291.641 86.96 291.881 87.52C292.041 87.92 292.081 88.2667 292.001 88.56C291.414 91.3067 290.468 93.8933 289.161 96.32C287.481 99.44 285.854 101.067 284.281 101.2C282.334 101.36 280.841 99.08 279.801 94.36C279.774 94.2267 279.694 94.1467 279.561 94.12C279.428 94.0933 279.334 94.1467 279.281 94.28C277.894 97.16 276.708 100.253 275.721 103.56C275.614 103.907 275.401 104.12 275.081 104.2C274.761 104.253 274.494 104.147 274.281 103.88ZM266.961 97.64C266.908 97.88 266.814 98.28 266.681 98.84C266.574 99.3733 266.494 99.8 266.441 100.12C266.388 100.44 266.361 100.813 266.361 101.24C266.361 101.667 266.441 102.053 266.601 102.4C266.788 102.72 267.054 103.013 267.401 103.28C267.641 103.493 267.921 103.56 268.241 103.48C268.588 103.373 268.774 103.147 268.801 102.8C268.881 101.813 269.041 100.76 269.281 99.64C269.494 98.76 269.708 97.8 269.921 96.76C270.161 95.6933 270.374 94.7333 270.561 93.88C270.774 93.0267 271.041 92.04 271.361 90.92C271.601 90.28 271.414 89.6267 270.801 88.96C270.508 88.64 270.148 88.5333 269.721 88.64C269.294 88.72 269.014 88.96 268.881 89.36C268.428 90.6133 268.094 91.8533 267.881 93.08C267.721 93.88 267.534 94.7733 267.321 95.76C267.134 96.7467 267.014 97.3733 266.961 97.64ZM301.74 92.84C301.74 92.0933 301.767 91 301.82 89.56C301.9 88.0933 301.94 87 301.94 86.28C301.94 86.2 301.9 86.16 301.82 86.16C301.74 86.1333 301.687 86.1467 301.66 86.2C300.833 88.36 299.993 90.6667 299.14 93.12C299.113 93.2267 299.127 93.32 299.18 93.4C299.233 93.4533 299.3 93.4667 299.38 93.44C299.593 93.3867 299.82 93.3467 300.06 93.32C300.3 93.2667 300.567 93.2267 300.86 93.2C301.153 93.1467 301.38 93.1067 301.54 93.08C301.673 93.08 301.74 93 301.74 92.84ZM293.06 107.44C292.633 107.147 292.367 106.68 292.26 106.04C292.18 105.4 292.273 104.587 292.54 103.6C292.833 102.613 293.1 101.773 293.34 101.08C293.607 100.387 293.98 99.4667 294.46 98.32C294.593 98.0267 294.687 97.8 294.74 97.64C294.793 97.48 294.807 97.3333 294.78 97.2C294.513 96.5067 294.753 95.7867 295.5 95.04C295.66 94.88 295.753 94.76 295.78 94.68C297.54 89.6133 298.607 86.5867 298.98 85.6C299.007 85.4933 299.087 85.2667 299.22 84.92C299.353 84.5467 299.447 84.2933 299.5 84.16C299.553 84 299.647 83.76 299.78 83.44C299.913 83.12 300.033 82.8667 300.14 82.68C300.247 82.4933 300.38 82.28 300.54 82.04C300.7 81.8 300.86 81.6 301.02 81.44C301.687 80.8267 302.313 80.84 302.9 81.48C303.513 82.0933 303.9 82.8133 304.06 83.64C304.193 84.3333 304.287 85.0933 304.34 85.92C304.393 86.7467 304.42 87.4533 304.42 88.04C304.42 88.6267 304.407 89.4 304.38 90.36C304.353 91.32 304.34 92.0533 304.34 92.56C304.34 92.72 304.407 92.7733 304.54 92.72C304.7 92.6933 304.9 92.6533 305.14 92.6C305.38 92.52 305.54 92.48 305.62 92.48C305.993 92.4267 306.38 92.6 306.78 93C307.18 93.4 307.393 93.8133 307.42 94.24C307.473 94.6667 307.287 94.9867 306.86 95.2C306.7 95.2533 305.887 95.4 304.42 95.64C304.233 95.6933 304.14 95.8 304.14 95.96C304.14 98.6 303.847 102.56 303.26 107.84C303.233 108.16 303.073 108.36 302.78 108.44C302.513 108.547 302.247 108.507 301.98 108.32C301.047 107.76 300.62 107.147 300.7 106.48C301.313 101.387 301.62 98.0133 301.62 96.36C301.62 96.1733 301.513 96.1067 301.3 96.16C300.047 96.3467 298.993 96.5733 298.14 96.84C298.06 96.8667 298.007 96.92 297.98 97C297.847 97.4267 297.407 98.64 296.66 100.64C295.94 102.613 295.527 103.8 295.42 104.2C295.367 104.413 295.3 104.72 295.22 105.12C295.167 105.493 295.127 105.733 295.1 105.84C294.967 106.453 294.727 106.96 294.38 107.36C294.033 107.76 293.593 107.787 293.06 107.44Z" fill="#ACFFD1"/>
</svg>
